<?xml version="1.0" standalone="no"?>
<!DOCTYPE svg PUBLIC "-//W3C//DTD SVG 1.1//EN" "http://www.w3.org/Graphics/SVG/1.1/DTD/svg11.dtd" >
<svg xmlns="http://www.w3.org/2000/svg" xmlns:xlink="http://www.w3.org/1999/xlink" version="1.1">
<metadata>
Created by FontForge 20150913 at Sat Apr 16 10:42:18 2016
 By Jimmy Wärting
Copyright (c) ShyFonts Type Foundry, 1999. All rights reserved.
</metadata>
<defs>
<font id="SFQuartzite-Oblique" horiz-adv-x="1464" >
  <font-face 
    font-family="SF Quartzite"
    font-weight="400"
    font-style="oblique"
    font-stretch="normal"
    units-per-em="2048"
    panose-1="0 0 4 0 0 0 0 0 0 0"
    ascent="1638"
    descent="-410"
    x-height="879"
    cap-height="1169"
    bbox="-46 -290 3722.91 1462"
    underline-thickness="14"
    underline-position="-102"
    slope="-12"
    unicode-range="U+0020-00FF"
  />
<missing-glyph horiz-adv-x="1024" 
 />
    <glyph glyph-name=".notdef" horiz-adv-x="1024" 
 />
    <glyph glyph-name="exclam" unicode="!" horiz-adv-x="463" 
d="M416 145q-16 -59 -72 -103q-56 -42 -114 -42q-61 0 -92 43q-32 43 -15 102q16 60 70 105q55 43 114 43q60 0 93 -43q32 -45 16 -105zM416 367h-176l158 802h292z" />
    <glyph glyph-name="quotedbl" unicode="&#x22;" horiz-adv-x="866" 
d="M711 1024q-10 -41 -41 -74q-48 -59 -168 -150q-136 -97 -185 -97t-26 81q8 32 26 72t44 88q28 54 51.5 92.5t45.5 61.5q62 71 146 71q60 0 91 -43q32 -44 16 -102zM1075 1024q-11 -41 -39 -74q-47 -59 -168 -150q-136 -97 -186 -97q-48 0 -25 81q8 31 26 71t44 89
q52 104 96 154q66 71 145 71q62 0 93 -43q31 -40 14 -102z" />
    <glyph glyph-name="numbersign" unicode="#" horiz-adv-x="854" 
d="M594 879l-49 -148h145l52 148h-148zM784 586l-53 -148h-147l55 148h-148l-53 -148h-147l55 148h-127l39 145h140l50 148h-151l39 145h164l53 145h145l-51 -145h145l54 145h145l-51 -145h127l-39 -145h-141l-49 -148h151l-39 -145h-166z" />
    <glyph glyph-name="dollar" unicode="$" horiz-adv-x="1134" 
d="M864 293q19 63 -70 119l-118 -267q58 0 116 44q58 45 72 104zM774 1024q-59 0 -118 -44q-57 -43 -72 -101q-18 -71 71 -119zM1157 293q-31 -117 -143 -206q-111 -87 -228 -87h-176l-63 -142h-293l63 142h-261l38 145h289l162 365q-319 123 -254 369q30 113 141 202
q112 88 229 88h177l65 148h291l-64 -148h263l-39 -145h-289l-159 -361q317 -123 251 -370z" />
    <glyph glyph-name="percent" unicode="%" horiz-adv-x="2539" 
d="M1020 879q6 27 1 53t-19.5 46.5t-37.5 33t-52 12.5h-146q-28 0 -58 -12.5t-56 -33t-45 -46.5t-25 -53l-39 -148q-17 -57 16 -102q33 -43 90 -43h145q59 0 114 43q56 46 73 102zM2308 438q8 28 2.5 55t-20 47.5t-37 33t-49.5 12.5h-148q-57 0 -114 -45q-56 -45 -72 -103
l-39 -145q-15 -56 17 -103q31 -45 90 -45h147q27 0 56.5 12.5t56 33t46 47t25.5 55.5zM1274 731q-32 -116 -146 -205q-110 -88 -227 -88h-438q-118 0 -182 88t-31 205l38 148q31 114 142 202q112 88 229 88h439q115 0 178 -87q68 -92 36 -203zM1202 -11l-250 95l696 1102
l249 -100zM2562 293q-31 -114 -143 -205q-112 -88 -228 -88h-438q-118 0 -181 87q-65 91 -34 206l39 145q33 117 144 204q113 89 229 89h438q114 0 178 -88q66 -92 35 -205z" />
    <glyph glyph-name="ampersand" unicode="&#x26;" horiz-adv-x="1470" 
d="M1476 293q-32 -116 -143 -205q-112 -88 -227 -88h-731q-118 0 -181 87q-65 91 -34 206l8 28q23 89 95 161q73 75 161 110q-131 89 -86 256l8 31q31 114 142 202q112 88 229 88h848l-39 -145h-556q-28 0 -58 -12.5t-56.5 -33t-46 -46.5t-25.5 -53l-20 -74q-13 -57 18 -103
q33 -45 91 -45h116l-39 -145h-147q-27 0 -57 -12.5t-56.5 -33t-46 -46.5t-25.5 -53l-20 -74q-6 -29 -1 -55.5t19 -47t36.5 -33t52.5 -12.5h147q57 0 113 45q57 45 71 103l98 364h441z" />
    <glyph glyph-name="quotesingle" unicode="'" horiz-adv-x="456" 
d="M694 1024q-10 -41 -41 -74q-47 -59 -168 -150q-136 -97 -184 -97t-27 81q8 31 26 71t44 89q54 106 98 154q62 71 146 71q60 0 91 -43q31 -42 15 -102z" />
    <glyph glyph-name="parenleft" unicode="(" horiz-adv-x="729" 
d="M340 -142q-116 0 -180 87q-66 86 -35 200l236 879q30 114 143 203q111 90 227 90h291l-39 -148h-145q-56 0 -114 -44q-56 -44 -71 -101l-235 -879q-8 -27 -3 -53t19.5 -46.5t37.5 -33t52 -12.5h146l-40 -142h-290z" />
    <glyph glyph-name="parenright" unicode=")" horiz-adv-x="729" 
d="M680 145q-32 -115 -141 -200q-113 -87 -228 -87h-292l39 142h145q29 0 58.5 12.5t55.5 32.5t45 46.5t27 53.5l235 879q15 58 -18 101q-32 44 -90 44h-145l39 148h293q112 0 180 -90q63 -89 33 -203z" />
    <glyph glyph-name="asterisk" unicode="*" horiz-adv-x="790" 
d="M825 559l-176 119l-65 -240h-146l66 240l-242 -119l-38 125l239 121l-175 119l106 127l178 -119l63 237h145l-63 -237l239 119l39 -127l-239 -119l174 -121z" />
    <glyph glyph-name="plus" unicode="+" horiz-adv-x="768" 
d="M594 512l-78 -293h-145l77 293h-292l39 145h292l79 293h145l-78 -293h293l-39 -145h-293z" />
    <glyph glyph-name="comma" unicode="," horiz-adv-x="456" 
d="M458 145q-10 -39 -38 -71q-26 -31 -68 -67.5t-102 -79.5q-133 -100 -184 -100q-49 0 -27 82q8 31 26 70.5t43 90.5q59 106 99 149q60 74 145 74q60 0 91 -43q31 -44 15 -105z" />
    <glyph glyph-name="hyphen" unicode="-" horiz-adv-x="926" 
d="M234 512l38 145h731l-39 -145h-730z" />
    <glyph glyph-name="period" unicode="." horiz-adv-x="430" 
d="M400 145q-16 -57 -73 -102q-55 -43 -114 -43q-61 0 -92 43q-32 43 -15 102q17 62 71 105q55 43 114 43t92 -44t17 -104z" />
    <glyph glyph-name="slash" unicode="/" horiz-adv-x="817" 
d="M254 -148l-248 97l869 1374l249 -100z" />
    <glyph glyph-name="zero" unicode="0" horiz-adv-x="1497" 
d="M1202 879q6 27 1 53t-19 46.5t-36.5 33t-51.5 12.5h-148q-27 0 -56.5 -12.5t-56 -33t-46 -46.5t-25.5 -53l-158 -586q-6 -29 -1 -55.5t19.5 -47t37 -33t51.5 -12.5h147q57 0 113 45q57 46 72 103zM1484 293q-30 -114 -143 -205q-112 -88 -227 -88h-731q-118 0 -181 87
q-65 91 -34 206l158 586q30 113 141 202q112 88 229 88h732q113 0 178 -87q68 -92 36 -203z" />
    <glyph glyph-name="one" unicode="1" horiz-adv-x="635" 
d="M96 0l314 1169h438l-313 -1169h-439z" />
    <glyph glyph-name="two" unicode="2" horiz-adv-x="1472" 
d="M82 0l78 293q51 188 307 297q75 31 459 135q243 64 268 154q13 57 -18 100q-32 45 -88 45h-732l40 145h1024q113 0 178 -87q68 -92 36 -203q-53 -194 -309 -299q-37 -17 -149.5 -50.5t-309.5 -87.5q-245 -65 -268 -149l-39 -148h879l-39 -145h-1317z" />
    <glyph glyph-name="three" unicode="3" horiz-adv-x="1317" 
d="M1312 293q-30 -118 -142 -206q-111 -87 -228 -87h-876l38 145h584q58 0 114 45q58 46 73 103l20 74q6 27 1 53t-19.5 46.5t-37.5 33t-53 12.5h-438l39 145h409q58 0 115 45q57 47 72 103l20 74q7 27 1.5 53t-20.5 46.5t-38 33t-51 12.5h-555l39 145h848q113 0 178 -87
q67 -91 37 -203l-8 -31q-45 -166 -228 -256q73 -34 105 -110q32 -77 10 -161z" />
    <glyph glyph-name="four" unicode="4" 
d="M926 0l77 293h-583q-118 0 -181 88q-65 89 -32 205l156 583h437l-155 -583q-8 -29 -3 -55.5t20 -47t38 -33t50 -12.5h293l196 731h440l-313 -1169h-440z" />
    <glyph glyph-name="five" unicode="5" horiz-adv-x="1472" 
d="M1476 293q-32 -116 -143 -205q-112 -88 -227 -88h-1024l39 145h731q28 0 57.5 12t55 32t44.5 47t27 57q26 86 -186 151q-332 109 -385 138q-199 106 -148 297l79 290h1316l-39 -145h-879l-38 -145q-25 -88 186 -152q334 -107 385 -135q202 -111 149 -299z" />
    <glyph glyph-name="six" unicode="6" horiz-adv-x="1480" 
d="M1104 512q13 58 -18 101q-32 44 -89 44h-147q-28 0 -57 -11.5t-54.5 -31.5t-45 -46.5t-28.5 -55.5l-59 -219q-6 -29 -1 -55.5t19.5 -47t37 -33t51.5 -12.5h147q57 0 113 45q57 46 72 103zM1484 293q-30 -114 -143 -205q-112 -88 -227 -88h-731q-118 0 -181 87
q-65 91 -34 206l158 586q30 113 141 202q112 88 229 88h877l-39 -145h-586q-27 0 -56.5 -12.5t-56 -33t-46 -46.5t-25.5 -53l-43 -162q10 42 71 69q47 19 97 19h440q113 0 179 -90q68 -92 36 -203z" />
    <glyph glyph-name="seven" unicode="7" horiz-adv-x="1424" 
d="M1632 879q-53 -192 -309 -297q-71 -29 -459 -138q-242 -64 -268 -151l-78 -293h-438l78 293q51 188 307 299q36 15 150 48t309 87q242 63 268 152l39 145h-877l40 145h1316z" />
    <glyph glyph-name="eight" unicode="8" horiz-adv-x="1480" 
d="M1057 367q6 27 1 53t-19 46.5t-36.5 33t-52.5 12.5h-147q-27 0 -57 -12.5t-56.5 -33t-46 -46.5t-25.5 -53l-20 -74q-6 -29 -1 -55.5t19 -47t36.5 -33t52.5 -12.5h147q57 0 113 45q57 45 71 103zM1165 879q6 27 0.5 53t-19.5 46.5t-36.5 33t-50.5 12.5h-89
q-28 0 -58 -12.5t-56.5 -33t-46 -46.5t-25.5 -53l-20 -74q-13 -57 18 -103q33 -45 91 -45h87q27 0 57 12.5t56 33t45.5 47t26.5 55.5zM1476 293q-32 -116 -143 -205q-112 -88 -227 -88h-731q-118 0 -181 87q-65 91 -34 206l8 28q23 89 95 161q73 75 161 110q-131 89 -86 256
l8 31q31 114 142 202q112 88 229 88h672q115 0 180 -89t35 -201l-8 -31q-46 -168 -226 -256q73 -35 104 -110q33 -72 10 -161z" />
    <glyph glyph-name="nine" unicode="9" horiz-adv-x="1480" 
d="M1186 879q6 27 1 53t-19 46.5t-36.5 33t-51.5 12.5h-148q-27 0 -57 -12.5t-56.5 -33t-45.5 -46.5t-25 -53l-60 -222q-8 -27 -2.5 -53.5t20.5 -46.5t38 -32.5t50 -12.5h148q29 0 58.5 12.5t55 32.5t44 46.5t26.5 53.5zM1468 293q-32 -116 -143 -205q-112 -88 -227 -88
h-879l39 145h586q57 0 113 45q57 45 71 103l43 159q-11 -42 -72 -67q-51 -18 -96 -18h-438q-118 0 -182 87q-65 89 -33 203l59 222q31 114 142 202q112 88 229 88h731q114 0 179 -87q68 -92 36 -203z" />
    <glyph glyph-name="colon" unicode=":" horiz-adv-x="440" 
d="M404 145q-16 -57 -73 -102q-55 -43 -114 -43q-60 0 -91 43q-32 44 -16 102q17 62 71 105q55 43 114 43t92 -44t17 -104zM561 731q-16 -59 -72 -103q-56 -42 -114 -42q-61 0 -92 42q-32 44 -15 103q14 60 70 103q55 45 114 45q60 0 92 -45q32 -44 17 -103z" />
    <glyph glyph-name="semicolon" unicode=";" horiz-adv-x="463" 
d="M454 145q-10 -39 -38 -71q-26 -31 -68 -67.5t-102 -79.5q-133 -100 -184 -100q-49 0 -27 82q16 63 69 161q59 106 99 149q60 74 145 74q60 0 91 -43q31 -44 15 -105zM612 731q-17 -60 -72 -103q-56 -42 -114 -42q-60 0 -91 42q-32 46 -16 103q15 60 70 103q54 45 115 45
q59 0 91 -45q31 -43 17 -103z" />
    <glyph glyph-name="less" unicode="&#x3c;" horiz-adv-x="526" 
d="M240 145l-41 441l276 438h246l-277 -438l41 -441h-245z" />
    <glyph glyph-name="equal" unicode="=" horiz-adv-x="877" 
d="M195 367l39 145h730l-38 -145h-731zM272 657l39 148h732l-40 -148h-731z" />
    <glyph glyph-name="greater" unicode="&#x3e;" horiz-adv-x="526" 
d="M363 145h-247l280 441l-44 438h246l43 -438z" />
    <glyph glyph-name="question" unicode="?" horiz-adv-x="1196" 
d="M412 145q-16 -59 -72 -103q-56 -42 -114 -42q-61 0 -92 43q-32 44 -16 102q17 62 71 105q55 43 114 43q60 0 93 -43q32 -45 16 -105zM1391 805q-31 -117 -144 -206q-111 -87 -225 -87h-367q-59 0 -112 -44t-72 -101h-293q37 117 141 203q111 87 230 87h219q57 0 113 45
q57 47 71 103l20 74q7 27 2.5 53t-19 46.5t-37 33t-52.5 12.5h-512l40 145h804q114 0 179 -89t34 -201z" />
    <glyph glyph-name="at" unicode="@" horiz-adv-x="1747" 
d="M981 586q-47 0 -93 -37q-48 -37 -61 -82q-10 -42 12 -71t64 -29h109q45 0 89 33t58 75l41 111h-219zM1792 475q-22 -85 -109 -154q-83 -65 -172 -65h-870q-40 0 -71.5 16.5t-51 44t-25.5 64t5 77.5q24 91 116 162q95 74 186 74h439q6 23 3 43t-12.5 35t-25.5 24t-37 9
h-440l41 109h660q39 0 71 -16.5t52.5 -44.5t27 -64t-5.5 -76l-4 -19l-119 -327h92q31 0 57.5 20.5t34.5 50.5l119 441q7 27 2 53t-19.5 46.5t-37.5 33t-52 12.5h-987q-28 0 -58 -12.5t-56.5 -33t-46 -46.5t-25.5 -53l-158 -586q-13 -56 19 -103q33 -45 90 -45h1133l-40 -145
h-1132q-118 0 -181 87q-65 91 -34 206l158 586q30 113 141 202q112 88 229 88h987q114 0 179 -87q68 -93 37 -203z" />
    <glyph glyph-name="A" unicode="A" horiz-adv-x="1509" 
d="M1245 1024h-293q-27 0 -56.5 -12.5t-56 -33t-46 -46.5t-25.5 -53l-59 -222h438zM970 0l138 512h-438l-137 -512h-439l236 879q31 114 142 202q112 88 229 88h1024l-314 -1169h-441z" />
    <glyph glyph-name="B" unicode="B" horiz-adv-x="1495" 
d="M1071 367q7 27 2 53t-19.5 46.5t-37.5 33t-52 12.5h-292l-98 -367h292q57 0 113 45q57 46 72 103zM1180 879q6 27 0.5 53t-20 46.5t-37 33t-50.5 12.5h-264l-98 -367h264q26 0 55.5 12.5t56 33t46.5 47t26 55.5zM1491 293q-32 -117 -144 -205t-227 -88h-1024l314 1169
h993q115 0 180 -89t35 -201l-8 -31q-45 -169 -225 -256q72 -35 104 -110q33 -72 10 -161z" />
    <glyph glyph-name="C" unicode="C" horiz-adv-x="1325" 
d="M383 0q-118 0 -181 87q-65 91 -34 206l158 586q30 113 141 202q112 88 229 88h877l-39 -145h-586q-27 0 -56.5 -12.5t-56 -33t-46 -46.5t-25.5 -53l-158 -586q-6 -29 -1 -55.5t19.5 -47t37 -33t51.5 -12.5h585l-38 -145h-877z" />
    <glyph glyph-name="D" unicode="D" horiz-adv-x="1503" 
d="M1208 879q7 27 2 53t-19.5 46.5t-37.5 33t-51 12.5h-293l-235 -879h292q57 0 113 45q57 46 72 103zM1491 293q-32 -117 -144 -205t-227 -88h-1024l314 1169h1024q113 0 178 -87q68 -92 36 -203z" />
    <glyph glyph-name="E" unicode="E" horiz-adv-x="1325" 
d="M383 0q-118 0 -181 87q-65 91 -34 206l158 586q30 113 141 202q112 88 229 88h877l-39 -145h-586q-27 0 -56.5 -12.5t-56 -33t-46 -46.5t-25.5 -53l-59 -222h585l-38 -145h-587l-59 -219q-6 -29 -1 -55.5t19.5 -47t37 -33t51.5 -12.5h585l-38 -145h-877z" />
    <glyph glyph-name="F" unicode="F" horiz-adv-x="1278" 
d="M950 1024q-27 0 -56.5 -12.5t-56 -33t-46 -46.5t-25.5 -53l-59 -222h585l-38 -145h-586l-137 -512h-439l236 879q30 113 141 202q112 88 229 88h877l-39 -145h-586z" />
    <glyph glyph-name="G" unicode="G" horiz-adv-x="1493" 
d="M383 0q-118 0 -181 87q-65 91 -34 206l158 586q30 113 141 202q112 88 229 88h1024l-39 -145h-733q-27 0 -56.5 -12.5t-56 -33t-46 -46.5t-25.5 -53l-158 -586q-6 -29 -1 -55.5t19.5 -47t37 -33t51.5 -12.5h292l119 441h441l-158 -586h-1024z" />
    <glyph glyph-name="H" unicode="H" horiz-adv-x="1511" 
d="M972 0l138 512h-438l-137 -512h-439l314 1169h438l-137 -512h438l137 512h441l-314 -1169h-441z" />
    <glyph glyph-name="I" unicode="I" horiz-adv-x="635" 
d="M96 0l314 1169h438l-313 -1169h-439z" />
    <glyph glyph-name="J" unicode="J" horiz-adv-x="993" 
d="M979 293q-31 -117 -143 -206q-111 -87 -228 -87h-583l39 145h292q27 0 57 12.5t56.5 33t46 47t25.5 55.5l235 876h439z" />
    <glyph glyph-name="K" unicode="K" horiz-adv-x="1507" 
d="M972 0l99 367q7 27 2 53t-19.5 46.5t-37.5 33t-52 12.5h-292l-137 -512h-439l314 1169h438l-137 -512h292q57 0 113 45q57 46 72 103l98 364h441l-87 -321q-21 -81 -91 -154q-69 -72 -150 -108q63 -39 93 -111q30 -70 7 -154l-86 -321h-441z" />
    <glyph glyph-name="L" unicode="L" horiz-adv-x="1274" 
d="M385 0q-118 0 -181 87q-65 91 -34 206l236 876h438l-236 -876q-6 -29 -1 -55.5t19.5 -47t37 -33t51.5 -12.5h585l-38 -145h-877z" />
    <glyph glyph-name="M" unicode="M" horiz-adv-x="2237" 
d="M1702 0l236 879q6 27 1 53t-19 46.5t-36.5 33t-52.5 12.5h-74q-28 0 -58 -12.5t-56 -33t-45 -46.5t-25 -53l-236 -879h-438l235 879q6 27 1 53t-19 46.5t-37 33t-53 12.5h-74q-27 0 -56.5 -12.5t-56 -33t-46 -46.5t-25.5 -53l-235 -879h-439l236 879q31 114 142 202
q112 88 229 88h1461q116 0 179 -87q68 -93 37 -203l-236 -879h-440z" />
    <glyph glyph-name="N" unicode="N" horiz-adv-x="1507" 
d="M972 0l236 879q7 27 2 53t-19.5 46.5t-37.5 33t-51 12.5h-293l-274 -1024h-439l314 1169h1024q113 0 178 -87q68 -92 36 -203l-235 -879h-441z" />
    <glyph glyph-name="O" unicode="O" horiz-adv-x="1497" 
d="M1202 879q6 27 1 53t-19 46.5t-36.5 33t-51.5 12.5h-148q-27 0 -56.5 -12.5t-56 -33t-46 -46.5t-25.5 -53l-158 -586q-6 -29 -1 -55.5t19.5 -47t37 -33t51.5 -12.5h147q57 0 113 45q57 46 72 103zM1484 293q-30 -114 -143 -205q-112 -88 -227 -88h-731q-118 0 -181 87
q-65 91 -34 206l158 586q30 113 141 202q112 88 229 88h732q113 0 178 -87q68 -92 36 -203z" />
    <glyph glyph-name="P" unicode="P" horiz-adv-x="1446" 
d="M1208 879q7 27 2 53t-19.5 46.5t-37.5 33t-51 12.5h-293l-117 -438h293q58 0 113 43q55 46 71 102zM1610 731q-32 -116 -146 -205q-110 -88 -227 -88h-586l-116 -438h-439l314 1169h1024q113 0 178 -87q68 -92 36 -203z" />
    <glyph glyph-name="Q" unicode="Q" horiz-adv-x="1501" 
d="M1180 879q6 27 1 53t-19 46.5t-36.5 33t-52.5 12.5h-147q-27 0 -57 -12.5t-56.5 -33t-45.5 -46.5t-25 -53l-158 -586q-6 -29 -1 -55.5t19 -47t36.5 -33t51.5 -12.5h148q57 0 113 45q57 45 71 103zM721 -290q-116 0 -180 88q-61 92 -35 202h-145q-118 0 -182 87
q-65 91 -34 206l158 586q31 114 142 202q112 88 229 88h731q115 0 178 -87q67 -91 37 -203l-158 -586q-32 -116 -143 -205q-113 -88 -227 -88h-148q-6 -59 20 -97q27 -45 89 -45h327l-39 -148h-620z" />
    <glyph glyph-name="R" unicode="R" horiz-adv-x="1501" 
d="M1180 879q6 27 0.5 53t-20 46.5t-37 33t-50.5 12.5h-264l-117 -438h264q28 0 57 12t54.5 32t45 46t27.5 55zM972 0l79 293q16 57 -17 101t-90 44h-293l-116 -438h-439l314 1169h993q115 0 180 -89t35 -201l-26 -103q-48 -171 -226 -256q68 -37 103 -111q34 -73 9 -161
l-65 -248h-441z" />
    <glyph glyph-name="S" unicode="S" horiz-adv-x="1468" 
d="M1470 293q-32 -116 -143 -205q-112 -88 -227 -88h-1024l38 145h732q29 0 58.5 12t54.5 32t44 47t27 57q26 86 -186 151q-329 109 -386 138q-198 105 -147 297q31 114 142 202q112 88 229 88h1024l-39 -145h-733q-28 0 -58 -12.5t-56 -33t-45 -46.5t-25 -53
q-25 -88 186 -152q167 -54 262 -87t123 -48q202 -111 149 -299z" />
    <glyph glyph-name="T" unicode="T" horiz-adv-x="1399" 
d="M1194 1024l-274 -1024h-441l275 1024h-439l39 145h1317l-39 -145h-438z" />
    <glyph glyph-name="U" unicode="U" horiz-adv-x="1505" 
d="M1489 293q-32 -117 -144 -205t-227 -88h-731q-118 0 -181 87q-65 91 -34 206l236 876h438l-236 -876q-6 -29 -1 -55.5t19.5 -47t37 -33t51.5 -12.5h147q57 0 113 45q57 46 72 103l235 876h441z" />
    <glyph glyph-name="V" unicode="V" horiz-adv-x="1507" 
d="M1491 293q-32 -117 -144 -205t-227 -88h-1024l314 1169h438l-274 -1024h292q57 0 113 45q57 46 72 103l235 876h441z" />
    <glyph glyph-name="W" unicode="W" horiz-adv-x="2241" 
d="M2222 293q-31 -114 -143 -205q-112 -88 -228 -88h-1462q-118 0 -181 87q-65 91 -34 206l236 876h438l-236 -876q-6 -29 -1 -55.5t19.5 -47t37 -33t51.5 -12.5h73q58 0 115 45q57 47 72 103l236 876h437l-234 -876q-15 -56 17 -103q30 -45 89 -45h74q56 0 113 45t71 103
l235 876h441z" />
    <glyph glyph-name="X" unicode="X" horiz-adv-x="1511" 
d="M975 0l98 367q7 27 2.5 53t-19 46.5t-37.5 33t-53 12.5h-147q-27 0 -57 -12.5t-56 -33t-45.5 -46.5t-25.5 -53l-98 -367h-439l86 321q23 82 90 155q34 37 72 64t80 46q-65 37 -94 108q-28 72 -6 154l86 321h438l-98 -364q-6 -29 -1 -55.5t19 -47t36.5 -33t51.5 -12.5h147
q57 0 113 45q57 46 72 103l98 364h441l-87 -321q-21 -81 -91 -154q-69 -72 -150 -108q64 -38 93 -110q30 -71 7 -155l-86 -321h-440z" />
    <glyph glyph-name="Y" unicode="Y" horiz-adv-x="1448" 
d="M1559 657q-31 -111 -146 -203q-110 -87 -225 -87h-148l-98 -367h-438l98 367h-146q-117 0 -181 87q-65 89 -33 203l137 512h438l-137 -512q-8 -27 -2.5 -53.5t20.5 -46.5t38 -32.5t50 -12.5h148q29 0 58.5 12.5t54.5 33t44 46.5t27 53l138 512h440z" />
    <glyph glyph-name="Z" unicode="Z" horiz-adv-x="1480" 
d="M82 0l78 293q51 188 307 299q36 15 150 48t309 87q242 63 268 152l39 145h-877l40 145h1316l-78 -290q-53 -192 -309 -297q-71 -29 -459 -138q-244 -64 -268 -151l-39 -148h879l-39 -145h-1317z" />
    <glyph glyph-name="bracketleft" unicode="[" horiz-adv-x="736" 
d="M60 -142l390 1459h584l-39 -148h-290l-314 -1169h291l-39 -142h-583z" />
    <glyph glyph-name="backslash" unicode="\" horiz-adv-x="819" 
d="M479 -148l-131 1371l301 100l133 -1374z" />
    <glyph glyph-name="bracketright" unicode="]" horiz-adv-x="736" 
d="M12 -142l39 142h293l313 1169h-292l39 148h583l-391 -1459h-584z" />
    <glyph glyph-name="asciicircum" unicode="^" horiz-adv-x="852" 
d="M805 657l-109 359l-300 -359h-175l430 512h174l156 -512h-176z" />
    <glyph glyph-name="underscore" unicode="_" horiz-adv-x="930" 
d="M98 0l39 145h731l-39 -145h-731z" />
    <glyph glyph-name="grave" unicode="`" horiz-adv-x="715" 
d="M387 1317l185 145l460 -190l-6 -29z" />
    <glyph glyph-name="a" unicode="a" horiz-adv-x="1484" 
d="M1071 438h-293q-28 0 -57 -12t-54.5 -32t-45 -46.5t-27.5 -54.5q-6 -29 -1 -55.5t19 -47t36.5 -33t52.5 -12.5h147q57 0 113 45q57 45 71 103zM1472 293q-32 -116 -143 -205q-112 -88 -227 -88h-731q-118 0 -182 87q-64 88 -33 206q30 114 143 203q115 90 229 90h584
q4 29 -1 55.5t-19 46.5t-36 31.5t-51 11.5h-585l38 148h879q114 0 178 -91q66 -89 37 -202z" />
    <glyph glyph-name="b" unicode="b" 
d="M1132 586q15 57 -17 101t-89 44h-293l-157 -586h292q57 0 113 45q57 46 72 103zM1493 293q-31 -114 -143 -205q-113 -88 -228 -88h-1024l314 1169h438l-78 -290h586q112 0 178 -91q66 -89 37 -202z" />
    <glyph glyph-name="c" unicode="c" horiz-adv-x="1296" 
d="M381 0q-118 0 -181 87q-65 91 -34 206l80 293q31 115 141 202q113 91 229 91h877l-39 -148h-586q-28 0 -58 -11.5t-56 -31.5t-45 -46.5t-25 -55.5l-80 -293q-6 -29 -1 -55.5t19.5 -47t37 -33t51.5 -12.5h585l-38 -145h-877z" />
    <glyph glyph-name="d" unicode="d" 
d="M1120 731h-293q-28 0 -58 -11.5t-56 -31.5t-45 -46.5t-25 -55.5l-80 -293q-6 -29 -1 -55.5t19.5 -47t37 -33t51.5 -12.5h292zM340 0q-117 0 -181 87q-65 91 -34 206l80 293q31 115 141 202q113 91 230 91h583l78 290h440l-313 -1169h-1024z" />
    <glyph glyph-name="e" unicode="e" horiz-adv-x="1489" 
d="M1124 586q13 57 -17 101q-32 44 -89 44h-148q-28 0 -58 -11.5t-56 -31.5t-45 -46.5t-25 -55.5l-41 -148h439zM606 293q-8 -62 20 -104q29 -44 87 -44h585l-38 -145h-877q-118 0 -181 87q-65 91 -34 206l80 293q31 115 141 202q113 91 229 91h732q112 0 178 -91
q66 -89 37 -202l-81 -293h-878z" />
    <glyph glyph-name="f" unicode="f" horiz-adv-x="997" 
d="M952 1024q-27 0 -56.5 -12.5t-56 -33t-46 -46.5t-25.5 -53l-59 -222h292l-39 -145h-292l-137 -512h-439l236 879q31 114 142 202q112 88 229 88h583l-39 -145h-293z" />
    <glyph glyph-name="g" unicode="g" horiz-adv-x="1491" 
d="M1151 731h-293q-28 0 -58 -11.5t-56 -31.5t-45 -46.5t-25 -55.5l-80 -293q-6 -29 -1 -55.5t19 -47t36.5 -33t52.5 -12.5h292zM1395 0q-29 -107 -144 -200q-116 -90 -227 -90h-879l39 148h586q58 0 111 45q52 40 73 97h-583q-118 0 -182 87q-64 88 -33 206l80 293
q31 115 141 202q113 91 229 91h1024z" />
    <glyph glyph-name="h" unicode="h" horiz-adv-x="1466" 
d="M975 0l157 586q15 57 -17 101t-89 44h-293l-196 -731h-439l314 1169h438l-78 -290h586q112 0 178 -91q66 -89 37 -202l-158 -586h-440z" />
    <glyph glyph-name="i" unicode="i" horiz-adv-x="622" 
d="M90 0l236 879h438l-236 -879h-438zM862 1243q-26 -87 -108 -153q-84 -66 -170 -66q-84 0 -136 66q-47 70 -24 153q21 86 104 152q86 67 173 67q86 0 132 -67q52 -64 29 -152z" />
    <glyph glyph-name="j" unicode="j" horiz-adv-x="780" 
d="M688 0q-31 -111 -141 -200q-116 -90 -228 -90h-365l39 148h73q28 0 57.5 12t55 31.5t44.5 45.5t27 53l235 879h439zM1022 1243q-26 -87 -108 -153q-86 -66 -170 -66q-85 0 -136 66q-47 69 -24 153q21 86 104 152q86 67 172 67q87 0 133 -67q52 -64 29 -152z" />
    <glyph glyph-name="k" unicode="k" horiz-adv-x="1466" 
d="M975 0l59 219q15 56 -17 102q-31 46 -89 46h-293l-98 -367h-439l314 1169h438l-176 -657h292q30 0 59.5 12.5t54.5 32.5t43.5 46.5t27.5 53.5l59 222h440l-46 -176q-23 -83 -92 -155q-66 -72 -152 -110q67 -37 94 -108q30 -74 8 -154l-47 -176h-440z" />
    <glyph glyph-name="l" unicode="l" horiz-adv-x="639" 
d="M98 0l314 1169h438l-313 -1169h-439z" />
    <glyph glyph-name="m" unicode="m" horiz-adv-x="2241" 
d="M1704 0l158 586q14 57 -18 101t-89 44h-74q-55 0 -114 -44q-56 -43 -70 -101l-158 -586h-438l158 586q13 58 -19 101q-32 44 -90 44h-73q-28 0 -58 -11.5t-56.5 -31.5t-45.5 -46.5t-25 -55.5l-157 -586h-439l158 586q32 117 142 202q113 91 228 91h1463q113 0 177 -91
q66 -90 38 -202l-158 -586h-440z" />
    <glyph glyph-name="n" unicode="n" horiz-adv-x="1509" 
d="M975 0l157 586q15 57 -17 101t-89 44h-293l-196 -731h-439l236 879h1024q112 0 178 -91q66 -89 37 -202l-158 -586h-440z" />
    <glyph glyph-name="o" unicode="o" horiz-adv-x="1497" 
d="M1124 586q13 57 -17 101q-32 44 -89 44h-148q-28 0 -58 -11.5t-56 -31.5t-45 -46.5t-25 -55.5l-80 -293q-6 -29 -1 -55.5t19.5 -47t37 -33t51.5 -12.5h147q57 0 113 45q57 46 72 103zM1484 293q-30 -114 -143 -205q-112 -88 -227 -88h-731q-118 0 -181 87q-65 91 -34 206
l80 293q31 115 141 202q113 91 229 91h732q112 0 178 -91q66 -89 37 -202z" />
    <glyph glyph-name="p" unicode="p" horiz-adv-x="1462" 
d="M1132 586q15 57 -17 101t-89 44h-293l-157 -586h292q57 0 113 45q57 46 72 103zM1493 293q-31 -114 -143 -205q-113 -88 -228 -88h-585l-79 -290h-437l313 1169h1024q112 0 178 -91q66 -89 37 -202z" />
    <glyph glyph-name="q" unicode="q" 
d="M1120 731h-293q-28 0 -58 -11.5t-56 -31.5t-45 -46.5t-25 -55.5l-80 -293q-6 -29 -1 -55.5t19.5 -47t37 -33t51.5 -12.5h292zM846 -290l78 290h-584q-117 0 -181 87q-65 91 -34 206l80 293q31 115 141 202q113 91 230 91h1024l-314 -1169h-440z" />
    <glyph glyph-name="r" unicode="r" horiz-adv-x="1288" 
d="M983 586l39 145h-147q-28 0 -58 -11.5t-56.5 -31.5t-45.5 -46.5t-25 -55.5l-157 -586h-439l158 586q32 117 142 202q113 91 228 91h877l-77 -293h-439z" />
    <glyph glyph-name="s" unicode="s" horiz-adv-x="1501" 
d="M1468 219q-32 -111 -143 -170q-91 -49 -209 -49h-1024l39 145h805q27 0 56 23q28 22 36 51q15 55 -201 98q-156 29 -254.5 53.5t-142.5 43.5q-206 85 -162 243q32 114 140 170q91 52 212 52h1024l-38 -148h-806q-30 0 -57.5 -21.5t-35.5 -52.5q-15 -54 201 -96
q309 -61 396 -98q205 -86 164 -244z" />
    <glyph glyph-name="t" unicode="t" horiz-adv-x="1142" 
d="M387 0q-118 0 -181 87q-65 91 -34 206l236 876h438l-78 -290h438l-39 -148h-438l-119 -438q-6 -29 -1 -55.5t19.5 -47t37 -33t51.5 -12.5h440l-39 -145h-731z" />
    <glyph glyph-name="u" unicode="u" horiz-adv-x="1505" 
d="M1489 293q-32 -117 -144 -205t-227 -88h-731q-118 0 -181 87q-65 91 -34 206l158 586h438l-158 -586q-6 -29 -1 -55.5t19.5 -47t37 -33t51.5 -12.5h147q57 0 113 45q57 46 72 103l157 586h440z" />
    <glyph glyph-name="v" unicode="v" horiz-adv-x="1509" 
d="M1493 293q-31 -114 -143 -205q-113 -88 -228 -88h-1024l236 879h438l-196 -734h292q57 0 113 45q57 46 72 103l157 586h440z" />
    <glyph glyph-name="w" unicode="w" horiz-adv-x="2241" 
d="M2222 293q-31 -114 -143 -205q-112 -88 -228 -88h-1462q-118 0 -181 87q-65 91 -34 206l158 586h438l-158 -586q-6 -29 -1 -55.5t19.5 -47t37 -33t51.5 -12.5h73q58 0 115 45q57 47 72 103l157 586h439l-157 -586q-15 -56 17 -103q30 -45 89 -45h74q56 0 113 45t71 103
l158 586h440z" />
    <glyph glyph-name="x" unicode="x" horiz-adv-x="1509" 
d="M975 0l59 219q15 56 -17 102q-31 46 -89 46h-148q-27 0 -56.5 -12.5t-56 -33t-46 -47.5t-25.5 -55l-59 -219h-439l47 176q23 81 91 154q66 70 149 108q-64 37 -93 110q-29 72 -6 155l48 176h438l-59 -222q-8 -27 -2.5 -53.5t20.5 -46.5t38 -32.5t50 -12.5h147
q30 0 59.5 12.5t54.5 32.5t43.5 46.5t27.5 53.5l59 222h440l-46 -176q-23 -83 -92 -155q-66 -72 -152 -110q67 -37 94 -108q30 -74 8 -154l-47 -176h-440z" />
    <glyph glyph-name="y" unicode="y" horiz-adv-x="1495" 
d="M1399 0q-29 -107 -144 -200q-116 -90 -227 -90h-879l40 148h585q57 0 109 43q52 41 75 99h-583q-118 0 -181 87q-65 91 -34 206l157 586h439l-158 -586q-6 -29 -1 -55.5t19 -47t36.5 -33t52.5 -12.5h292l197 734h440z" />
    <glyph glyph-name="z" unicode="z" 
d="M98 0l60 219q41 159 292 244q104 37 447 98q239 42 254 96l20 74h-876l39 148h1316l-58 -222q-43 -160 -296 -241q-103 -39 -446 -99q-241 -44 -254 -98l-20 -74h878l-39 -145h-1317z" />
    <glyph glyph-name="braceleft" unicode="{" horiz-adv-x="838" 
d="M438 -142q-117 0 -180 87q-65 87 -34 200l69 257q13 58 -18 100q-30 42 -89 47l19 73q61 2 115 44q55 43 69 102l69 256q31 114 144 203q112 90 227 90h293l-38 -148h-148q-29 0 -58 -12t-54.5 -32t-44.5 -46t-27 -55l-78 -293q-16 -57 -72 -101q-51 -42 -113 -44
q58 -4 90 -46q30 -42 15 -102l-78 -293q-8 -27 -2.5 -53.5t20.5 -46.5t38 -32.5t50 -12.5h148l-39 -142h-293z" />
    <glyph glyph-name="bar" unicode="|" horiz-adv-x="496" 
d="M60 -142l390 1459h294l-392 -1459h-292z" />
    <glyph glyph-name="braceright" unicode="}" horiz-adv-x="835" 
d="M944 549q-62 -4 -117 -47q-55 -40 -69 -100l-70 -257q-32 -115 -141 -200q-113 -87 -228 -87h-292l39 142h145q29 0 59 12.5t55.5 32.5t44.5 46.5t28 53.5l77 293q16 61 71 102q53 41 115 46q-60 1 -90 44q-32 46 -16 101l78 293q14 59 -19 101q-32 44 -90 44h-145
l39 148h293q112 0 180 -90q63 -89 33 -203l-70 -256q-14 -59 19 -102q32 -42 89 -44z" />
    <glyph glyph-name="asciitilde" unicode="~" horiz-adv-x="768" 
d="M1024 1302q-92 -59 -164 -59q-43 0 -134 35q-89 34 -134 34q-76 0 -166 -69l39 150q79 57 163 57q46 0 137 -35t136 -35q76 0 164 70z" />
    <glyph glyph-name="Adieresis" unicode="&#xc4;" horiz-adv-x="1472" 
d="M1227 1024h-293q-27 0 -57 -12.5t-56.5 -33t-45.5 -46.5t-25 -53l-60 -222h438zM952 0l138 512h-439l-137 -512h-438l235 879q31 114 142 202q112 88 229 88h1024l-313 -1169h-441zM1022 1354q-12 -47 -54 -78q-41 -33 -83 -33q-23 0 -41 8.5t-29 23.5t-14.5 35.5
t2.5 43.5q12 41 53 76q41 32 86 32q43 0 67 -32q25 -31 13 -76zM1389 1354q-13 -46 -54 -79q-41 -32 -85 -32t-69 33q-24 31 -12 78q13 43 54 76q41 32 83 32q23 0 41 -8.5t29.5 -23.5t15 -34.5t-2.5 -41.5z" />
    <glyph glyph-name="Aring" unicode="&#xc5;" horiz-adv-x="1456" 
d="M1219 1024h-293q-27 0 -57 -12.5t-56.5 -33t-45.5 -46.5t-25 -53l-60 -222h438zM1138 1354q15 51 -36 51t-66 -51q-13 -52 37 -52q52 0 65 52zM944 0l138 512h-439l-137 -512h-438l235 879q31 114 142 202q112 88 229 88h1024l-313 -1169h-441zM1198 1354
q-12 -47 -54 -78q-41 -33 -85 -33q-42 0 -68 32q-25 33 -12 79q12 41 53 76q41 32 84 32q45 0 69 -32q25 -31 13 -76z" />
    <glyph glyph-name="Eacute" unicode="&#xc9;" horiz-adv-x="1278" 
d="M354 0q-117 0 -181 87q-65 91 -34 206l158 586q31 114 142 202q112 88 229 88h876l-39 -145h-585q-28 0 -58 -12.5t-56 -33t-45 -46.5t-25 -53l-60 -222h586l-39 -145h-586l-59 -219q-6 -29 -1 -55.5t19 -47t36.5 -33t51.5 -12.5h586l-39 -145h-877zM796 1243l7 29
l563 190l108 -145z" />
    <glyph glyph-name="Ntilde" unicode="&#xd1;" horiz-adv-x="1474" 
d="M956 0l236 879q6 27 1 53t-19 46.5t-36.5 33t-51.5 12.5h-294l-274 -1024h-438l314 1169h1024q113 0 178 -87q68 -92 36 -203l-235 -879h-441zM1378 1302q-97 -59 -165 -59q-44 0 -135 35q-86 34 -134 34q-72 0 -166 -69l39 150q79 57 164 57q45 0 135 -35
q93 -35 140 -35q73 0 164 70z" />
    <glyph glyph-name="Odieresis" unicode="&#xd6;" 
d="M1186 879q6 27 1 53t-19 46.5t-36.5 33t-51.5 12.5h-148q-27 0 -57 -12.5t-56.5 -33t-45.5 -46.5t-25 -53l-158 -586q-6 -29 -1 -55.5t19 -47t36.5 -33t51.5 -12.5h148q57 0 113 45q57 45 71 103zM1468 293q-32 -116 -143 -205q-112 -88 -227 -88h-731q-118 0 -182 87
q-64 88 -34 206l158 586q31 114 142 202q112 88 229 88h731q114 0 179 -87q68 -92 36 -203zM1020 1354q-12 -47 -54 -78q-41 -33 -83 -33q-23 0 -41 9t-29 24t-15 35t2 43q13 43 54 76q41 32 86 32q43 0 67 -32q25 -31 13 -76zM1387 1354q-13 -46 -54 -79q-41 -32 -85 -32
t-69 33q-24 31 -12 78q13 43 54 76q41 32 83 32q23 0 41 -8.5t29.5 -23.5t15 -34.5t-2.5 -41.5z" />
    <glyph glyph-name="Udieresis" unicode="&#xdc;" horiz-adv-x="1470" 
d="M1470 293q-32 -116 -143 -205q-112 -88 -227 -88h-731q-118 0 -182 87q-64 88 -34 206l236 876h438l-235 -876q-6 -29 -1 -55.5t19 -47t36.5 -33t51.5 -12.5h148q57 0 113 45q57 45 71 103l236 876h440zM1022 1354q-12 -47 -54 -78q-41 -33 -83 -33q-23 0 -41 8.5
t-29 23.5t-14.5 35.5t2.5 43.5q12 41 53 76q41 32 86 32q43 0 67 -32q25 -31 13 -76zM1389 1354q-13 -46 -54 -79q-41 -32 -85 -32t-69 33q-24 31 -12 78q13 43 54 76q41 32 83 32q23 0 41 -8.5t29.5 -23.5t15 -34.5t-2.5 -41.5z" />
    <glyph glyph-name="aacute" unicode="&#xe1;" horiz-adv-x="1436" 
d="M1036 438h-292q-29 0 -58 -12t-54 -32t-44.5 -46.5t-28.5 -54.5q-6 -29 -1 -55.5t19.5 -47t36.5 -33t51 -12.5h148q57 0 114 45q56 46 70 103zM1438 293q-31 -115 -144 -205q-112 -88 -227 -88h-731q-118 0 -182 87q-64 88 -33 206q30 114 143 203q115 90 229 90h585
q4 29 -1.5 55.5t-19.5 46.5t-36 31.5t-51 11.5h-585l39 148h878q114 0 178 -91q66 -89 37 -202zM772 950l8 31l563 188l107 -145z" />
    <glyph glyph-name="agrave" unicode="&#xe0;" horiz-adv-x="1440" 
d="M1059 438h-293q-28 0 -57 -12t-54.5 -32t-45 -46.5t-27.5 -54.5q-6 -29 -1 -55.5t19 -47t36.5 -33t51.5 -12.5h147q57 0 113 45q57 46 72 103zM1460 293q-32 -116 -143 -205q-113 -88 -227 -88h-732q-117 0 -181 87q-65 91 -34 206t143 203q115 90 230 90h584
q4 29 -1.5 55.5t-19 46.5t-35.5 31.5t-51 11.5h-585l38 148h879q114 0 178 -91q66 -89 37 -202zM522 1024l185 145l460 -188l-8 -31z" />
    <glyph glyph-name="acircumflex" unicode="&#xe2;" horiz-adv-x="1448" 
d="M1053 438h-293q-28 0 -57 -12t-54.5 -32t-45 -46.5t-27.5 -54.5q-6 -29 -1 -55.5t19 -47t36.5 -33t51.5 -12.5h147q57 0 113 45q57 46 72 103zM1454 293q-32 -117 -144 -205t-226 -88h-732q-117 0 -181 87q-65 91 -34 206t143 203q115 90 230 90h584q4 29 -1.5 55.5
t-19 46.5t-35.5 31.5t-51 11.5h-585l38 148h879q114 0 178 -91q66 -89 37 -202zM1159 950l-149 144l-228 -144h-237l352 219h266l234 -219h-238z" />
    <glyph glyph-name="adieresis" unicode="&#xe4;" horiz-adv-x="1448" 
d="M1053 438h-293q-28 0 -57 -12t-54.5 -32t-45 -46.5t-27.5 -54.5q-6 -29 -1 -55.5t19 -47t36.5 -33t51.5 -12.5h147q57 0 113 45q57 46 72 103zM1454 293q-32 -117 -144 -205t-226 -88h-732q-117 0 -181 87q-65 91 -34 206t143 203q115 90 230 90h584q4 29 -1.5 55.5
t-19 46.5t-35.5 31.5t-51 11.5h-585l38 148h879q114 0 178 -91q66 -89 37 -202zM928 1061q-12 -45 -55 -78q-42 -33 -85 -33q-22 0 -39.5 9t-28.5 24t-14 35t3 43q11 44 52 75q42 33 87 33q21 0 38 -9t28 -24t15 -34.5t-1 -40.5zM1294 1061q-12 -45 -54 -78t-87 -33
q-21 0 -38.5 9t-28 24t-14 35t2.5 43q11 42 52 75q42 33 86 33q22 0 39.5 -9t28 -24t14.5 -34.5t-1 -40.5z" />
    <glyph glyph-name="atilde" unicode="&#xe3;" horiz-adv-x="1448" 
d="M1053 438h-293q-28 0 -57 -12t-54.5 -32t-45 -46.5t-27.5 -54.5q-6 -29 -1 -55.5t19 -47t36.5 -33t51.5 -12.5h147q57 0 113 45q57 46 72 103zM1454 293q-32 -117 -144 -205t-226 -88h-732q-117 0 -181 87q-65 91 -34 206t143 203q115 90 230 90h584q4 29 -1.5 55.5
t-19 46.5t-35.5 31.5t-51 11.5h-585l38 148h879q114 0 178 -91q66 -89 37 -202zM1280 1012q-98 -62 -168 -62q-42 0 -133 35q-78 37 -133 37q-71 0 -168 -72l41 150q76 57 162 57q45 0 135 -35q90 -34 139 -34q74 0 164 69z" />
    <glyph glyph-name="aring" unicode="&#xe5;" horiz-adv-x="1428" 
d="M1043 438h-293q-29 0 -58 -12t-54.5 -32t-44.5 -46.5t-27 -54.5q-7 -29 -2 -55.5t19.5 -47t37 -33t51.5 -12.5h147q58 0 114 45q56 46 70 103zM1043 1061q12 51 -40 51q-51 0 -63 -51q-14 -51 37 -51t66 51zM1444 293q-31 -115 -144 -205q-112 -88 -227 -88h-731
q-117 0 -181 87q-65 91 -34 206t143 203q115 90 230 90h584q7 58 -21 102q-28 43 -86 43h-586l39 148h878q115 0 178 -91q66 -92 38 -202zM1102 1061q-12 -45 -55 -78q-42 -33 -87 -33q-42 0 -66 33t-11 78q11 44 52 75q42 33 85 33q45 0 69 -33q23 -33 13 -75z" />
    <glyph glyph-name="eacute" unicode="&#xe9;" horiz-adv-x="1438" 
d="M1090 586q14 57 -18 101t-89 44h-148q-28 0 -58 -11.5t-56 -31.5t-45 -46.5t-25 -55.5l-41 -148h439zM572 293q-9 -57 20 -104q29 -44 86 -44h586l-39 -145h-877q-117 0 -181 87q-65 91 -34 206l80 293q31 115 141 202q113 91 230 91h731q114 0 178 -91q66 -89 37 -202
l-80 -293h-878zM784 950l8 31l564 188l106 -145z" />
    <glyph glyph-name="egrave" unicode="&#xe8;" horiz-adv-x="1438" 
d="M1110 586q13 57 -17 101q-32 44 -90 44h-147q-28 0 -58 -11.5t-56 -31.5t-45 -46.5t-25 -55.5l-42 -148h439zM592 293q-8 -60 20 -104q29 -44 86 -44h586l-39 -145h-876q-118 0 -182 87q-64 88 -34 206l81 293q31 115 141 202q113 91 229 91h731q114 0 178 -91
q66 -89 37 -202l-80 -293h-878zM533 1024l184 145l460 -188l-8 -31z" />
    <glyph glyph-name="ecircumflex" unicode="&#xea;" horiz-adv-x="1446" 
d="M1104 586q14 57 -18 101t-89 44h-147q-29 0 -58.5 -11.5t-55.5 -31.5t-45 -46.5t-26 -55.5l-41 -148h439zM586 293q-8 -60 20 -104q29 -44 86 -44h586l-39 -145h-876q-118 0 -182 87q-65 91 -34 206l81 293q31 115 141 202q113 91 229 91h731q114 0 178 -91
q66 -89 37 -202l-80 -293h-878zM1169 950l-149 144l-228 -144h-237l353 219h265l234 -219h-238z" />
    <glyph glyph-name="edieresis" unicode="&#xeb;" horiz-adv-x="1446" 
d="M1104 586q14 57 -18 101t-89 44h-147q-29 0 -58.5 -11.5t-55.5 -31.5t-45 -46.5t-26 -55.5l-41 -148h439zM586 293q-8 -60 20 -104q29 -44 86 -44h586l-39 -145h-876q-118 0 -182 87q-65 91 -34 206l81 293q31 115 141 202q113 91 229 91h731q114 0 178 -91
q66 -89 37 -202l-80 -293h-878zM938 1061q-12 -45 -54 -78t-86 -33q-23 0 -40 9t-28 24t-14 35t3 43q10 43 51 75q43 33 88 33q43 0 67 -33q23 -33 13 -75zM1304 1061q-12 -45 -54 -78t-87 -33q-43 0 -67 33q-23 34 -10 78q10 43 51 75q43 33 86 33q45 0 68 -33
q24 -31 13 -75z" />
    <glyph glyph-name="iacute" unicode="&#xed;" horiz-adv-x="800" 
d="M76 0l235 879h439l-236 -879h-438zM367 950l8 31l563 188l107 -145z" />
    <glyph glyph-name="igrave" unicode="&#xec;" horiz-adv-x="800" 
d="M284 0l236 879h438l-235 -879h-439zM303 1024l184 145l461 -188l-8 -31z" />
    <glyph glyph-name="icircumflex" unicode="&#xee;" horiz-adv-x="930" 
d="M246 0l235 879h439l-236 -879h-438zM908 950l-150 144l-227 -144h-238l352 219h267l233 -219h-237z" />
    <glyph glyph-name="idieresis" unicode="&#xef;" horiz-adv-x="736" 
d="M147 0l236 879h438l-235 -879h-439zM578 1061q-12 -45 -55 -78q-42 -33 -85 -33q-22 0 -39.5 9t-28.5 24t-14.5 35t2.5 43q11 43 53 75q40 33 87 33q21 0 38 -9t28 -24t15 -34.5t-1 -40.5zM944 1061q-14 -47 -54 -78q-42 -33 -87 -33q-22 0 -39 9t-27.5 24t-14 35t2.5 43
q11 42 52 75q42 33 85 33q23 0 40.5 -9t28.5 -24t14.5 -34.5t-1.5 -40.5z" />
    <glyph glyph-name="ntilde" unicode="&#xf1;" horiz-adv-x="1470" 
d="M954 0l158 586q13 57 -17 101q-32 44 -90 44h-292l-197 -731h-438l235 879h1024q114 0 178 -91q66 -89 37 -202l-157 -586h-441zM1298 1012q-98 -62 -168 -62q-42 0 -133 35q-78 37 -133 37q-71 0 -168 -72l42 150q76 57 161 57q45 0 136 -35q89 -34 138 -34q75 0 164 69
z" />
    <glyph glyph-name="oacute" unicode="&#xf3;" horiz-adv-x="1448" 
d="M1090 586q14 57 -18 101t-89 44h-148q-28 0 -58 -11.5t-56 -31.5t-45 -46.5t-25 -55.5l-79 -293q-6 -29 -1 -55.5t19 -47t36.5 -33t51.5 -12.5h147q58 0 114 45q56 47 71 103zM1450 293q-30 -115 -144 -205q-112 -88 -226 -88h-732q-117 0 -181 87q-65 91 -34 206l80 293
q31 115 141 202q113 91 230 91h731q114 0 178 -91q66 -89 37 -202zM784 950l8 31l564 188l106 -145z" />
    <glyph glyph-name="ograve" unicode="&#xf2;" horiz-adv-x="1450" 
d="M1110 586q13 57 -17 101q-32 44 -90 44h-147q-28 0 -58 -11.5t-56 -31.5t-45 -46.5t-25 -55.5l-80 -293q-6 -29 -1 -55.5t19 -47t36.5 -33t51.5 -12.5h148q57 0 113 45q57 45 71 103zM1470 293q-32 -116 -143 -205q-112 -88 -227 -88h-731q-118 0 -182 87q-64 88 -34 206
l81 293q31 115 141 202q113 91 229 91h731q114 0 178 -91q66 -89 37 -202zM533 1024l184 145l460 -188l-8 -31z" />
    <glyph glyph-name="ocircumflex" unicode="&#xf4;" horiz-adv-x="1458" 
d="M1104 586q14 57 -18 101t-89 44h-147q-29 0 -58.5 -11.5t-55.5 -31.5t-45 -46.5t-26 -55.5l-79 -293q-6 -29 -1 -55.5t19 -47t36.5 -33t51.5 -12.5h148q57 0 113 45q57 45 71 103zM1464 293q-32 -116 -143 -205q-113 -88 -227 -88h-731q-118 0 -182 87q-65 91 -34 206
l81 293q31 115 141 202q113 91 229 91h731q114 0 178 -91q66 -89 37 -202zM1169 950l-149 144l-228 -144h-237l353 219h265l234 -219h-238z" />
    <glyph glyph-name="odieresis" unicode="&#xf6;" horiz-adv-x="1458" 
d="M1104 586q14 57 -18 101t-89 44h-147q-29 0 -58.5 -11.5t-55.5 -31.5t-45 -46.5t-26 -55.5l-79 -293q-6 -29 -1 -55.5t19 -47t36.5 -33t51.5 -12.5h148q57 0 113 45q57 45 71 103zM1464 293q-32 -116 -143 -205q-113 -88 -227 -88h-731q-118 0 -182 87q-65 91 -34 206
l81 293q31 115 141 202q113 91 229 91h731q114 0 178 -91q66 -89 37 -202zM938 1061q-12 -45 -54 -78t-86 -33q-23 0 -40 9t-28 24t-14 35t3 43q10 43 51 75q43 33 88 33q43 0 67 -33q23 -33 13 -75zM1304 1061q-12 -45 -54 -78t-87 -33q-43 0 -67 33q-23 34 -10 78
q10 43 51 75q43 33 86 33q45 0 68 -33q24 -31 13 -75z" />
    <glyph glyph-name="otilde" unicode="&#xf5;" horiz-adv-x="1460" 
d="M1106 586q14 57 -18 101t-89 44h-147q-28 0 -58 -11.5t-56 -31.5t-45 -46.5t-25 -55.5l-80 -293q-6 -29 -1 -55.5t19 -47t36.5 -33t51.5 -12.5h148q57 0 113 45q57 45 71 103zM1466 293q-32 -116 -143 -205q-113 -88 -227 -88h-731q-118 0 -182 87q-65 91 -34 206l81 293
q31 115 141 202q113 91 229 91h731q114 0 178 -91q66 -89 37 -202zM1292 1012q-98 -62 -168 -62q-42 0 -133 35q-78 37 -133 37q-71 0 -168 -72l41 150q78 57 162 57q45 0 136 -35q89 -34 138 -34q74 0 164 69z" />
    <glyph glyph-name="uacute" unicode="&#xfa;" horiz-adv-x="1456" 
d="M1454 293q-32 -117 -144 -205t-226 -88h-732q-117 0 -181 87q-65 91 -34 206l158 586h438l-157 -586q-6 -29 -1 -55.5t19 -47t36.5 -33t51.5 -12.5h147q57 0 113 45q57 46 72 103l157 586h441zM788 950l8 31l564 188l106 -145z" />
    <glyph glyph-name="ugrave" unicode="&#xf9;" horiz-adv-x="1456" 
d="M1474 293q-32 -116 -143 -205q-112 -88 -227 -88h-731q-118 0 -182 87q-64 88 -33 206l157 586h439l-158 -586q-6 -29 -1 -55.5t19 -47t36.5 -33t52.5 -12.5h147q57 0 113 45q57 45 71 103l158 586h440zM537 1024l184 145l461 -188l-9 -31z" />
    <glyph glyph-name="ucircumflex" unicode="&#xfb;" horiz-adv-x="1466" 
d="M1468 293q-32 -116 -143 -205q-112 -88 -227 -88h-731q-118 0 -182 87q-64 88 -34 206l158 586h439l-158 -586q-6 -29 -1 -55.5t19 -47t36.5 -33t51.5 -12.5h148q57 0 113 45q57 45 71 103l158 586h440zM1173 950l-149 144l-228 -144h-237l353 219h265l234 -219h-238z
" />
    <glyph glyph-name="udieresis" unicode="&#xfc;" horiz-adv-x="1466" 
d="M1468 293q-32 -116 -143 -205q-112 -88 -227 -88h-731q-118 0 -182 87q-64 88 -34 206l158 586h439l-158 -586q-6 -29 -1 -55.5t19 -47t36.5 -33t51.5 -12.5h148q57 0 113 45q57 45 71 103l158 586h440zM942 1061q-14 -47 -54 -78q-42 -33 -85 -33q-22 0 -39.5 9
t-28.5 24t-14.5 35t2.5 43q10 43 51 75q43 33 88 33q44 0 67 -33t13 -75zM1308 1061q-12 -45 -54 -78q-41 -33 -87 -33q-21 0 -38 9t-27.5 24t-14 35t2.5 43q10 43 51 75q43 33 86 33q45 0 68 -33q24 -31 13 -75z" />
    <glyph glyph-name="degree" unicode="&#xb0;" horiz-adv-x="467" 
d="M582 1005q8 31 -9.5 55t-48.5 24q-15 0 -31 -6.5t-30 -17.5t-24 -25.5t-13 -29.5q-8 -30 8 -53.5t47 -23.5q30 0 62 23q31 24 39 54zM668 1005q-10 -33 -31 -62.5t-49 -52t-61.5 -35.5t-68.5 -13q-68 0 -102 48q-35 50 -16 115q17 69 78 115q59 49 129 49q68 0 102 -49
q35 -49 19 -115z" />
    <glyph glyph-name="cent" unicode="&#xa2;" horiz-adv-x="1136" 
d="M733 879q-27 0 -57 -12.5t-56 -33t-45.5 -47.5t-25.5 -55l-80 -293q-6 -23 -4 -46t12 -42t26.5 -33t39.5 -20l257 582h-67zM768 145l-65 -145h-293l65 145h-84q-118 0 -181 88q-65 90 -34 205l80 293q30 117 142 205t228 88h238l66 145h293l-66 -145h201l-39 -145h-227
l-261 -586h330l-39 -148h-354z" />
    <glyph glyph-name="bullet" horiz-adv-x="866" 
d="M956 586q-39 -151 -178 -260q-137 -107 -287 -107q-151 0 -230 106q-77 107 -35 261q37 151 174 256q136 108 286 108t229 -109q80 -108 41 -255z" />
    <glyph glyph-name="bullet" unicode="&#x2022;" horiz-adv-x="866" 
d="M956 586q-39 -151 -178 -260q-137 -107 -287 -107q-151 0 -230 106q-77 107 -35 261q37 151 174 256q136 108 286 108t229 -109q80 -108 41 -255z" />
    <glyph glyph-name="paragraph" unicode="&#xb6;" 
d="M1577 1024l-313 -1166h-367l313 1166h-219l-313 -1166h-293l156 580h-72q-118 0 -182 87q-62 88 -31 206l39 148q31 114 142 202q112 88 228 88h1024l-39 -145h-73z" />
    <glyph glyph-name="registered" unicode="&#xae;" horiz-adv-x="1086" 
d="M782 586q13 55 -40 55h-109l-37 -137h109q55 0 69 53zM692 256l37 138q16 54 -39 54h-108l-54 -192h-165l118 438h385q44 0 68 -33q24 -34 14 -75l-8 -29q-13 -46 -61 -82q31 -31 16 -81l-37 -138h-166zM1034 475q39 147 -39 256q-78 111 -227 111t-287 -111
q-139 -109 -178 -256q-39 -146 41 -256q82 -109 228 -109q147 0 285 108q138 110 177 257zM1145 475q-51 -195 -231 -336q-176 -139 -371 -139q-193 0 -299 139q-101 145 -49 336q52 195 229 334q177 141 372 141q194 0 298 -141q103 -138 51 -334z" />
    <glyph glyph-name="copyright" unicode="&#xa9;" horiz-adv-x="1086" 
d="M485 256q-21 0 -38 8.5t-27.5 23.5t-14 35.5t2.5 43.5l59 219q11 42 52 75q42 33 85 33h330l-14 -53h-219q-56 0 -71 -55l-58 -219q-15 -56 40 -56h219l-16 -55h-330zM1034 475q39 147 -39 256q-78 111 -227 111t-287 -111q-139 -109 -178 -256q-39 -146 41 -256
q82 -109 228 -109q147 0 285 108q138 110 177 257zM1145 475q-51 -195 -231 -336q-176 -139 -371 -139q-193 0 -299 139q-101 145 -49 336q52 195 229 334q177 141 372 141q194 0 298 -141q103 -138 51 -334z" />
    <glyph glyph-name="trademark" horiz-adv-x="1517" 
d="M703 1114l-103 -383h-164l103 383h-164l14 55h494l-15 -55h-165zM1450 731l88 330q14 53 -66 53q-83 0 -98 -53l-88 -330h-164l88 330q15 53 -68 53q-81 0 -95 -53l-89 -330h-166l89 330q11 44 52 75q42 33 87 33h604q21 0 38 -9t28 -24t15 -34.5t-1 -40.5l-88 -330h-166
z" />
    <glyph glyph-name="trademark" unicode="&#x2122;" horiz-adv-x="1517" 
d="M703 1114l-103 -383h-164l103 383h-164l14 55h494l-15 -55h-165zM1450 731l88 330q14 53 -66 53q-83 0 -98 -53l-88 -330h-164l88 330q15 53 -68 53q-81 0 -95 -53l-89 -330h-166l89 330q11 44 52 75q42 33 87 33h604q21 0 38 -9t28 -24t15 -34.5t-1 -40.5l-88 -330h-166
z" />
    <glyph glyph-name="acute" unicode="&#xb4;" horiz-adv-x="715" 
d="M356 1243l7 29l563 190l106 -145z" />
    <glyph glyph-name="dieresis" unicode="&#xa8;" horiz-adv-x="758" 
d="M668 1354q-13 -46 -54 -79q-41 -32 -86 -32q-21 0 -38.5 8.5t-29 23.5t-15 35.5t2.5 43.5q12 41 53 76q43 32 85 32q43 0 69 -32q25 -31 13 -76zM1032 1354q-12 -47 -54 -78q-41 -33 -83 -33q-23 0 -41 8.5t-29 23.5t-14.5 35.5t2.5 43.5q12 41 53 76q43 32 86 32
q42 0 68 -32q25 -33 12 -76z" />
    <glyph glyph-name="AE" unicode="&#xc6;" horiz-adv-x="2224" 
d="M1248 1024h-294q-27 0 -56.5 -12.5t-56 -33t-46 -46.5t-25.5 -53l-59 -222h438zM972 0l138 512h-438l-137 -512h-439l236 879q31 114 142 202q112 88 229 88h1755l-39 -145h-586q-28 0 -58 -12.5t-56.5 -33t-45.5 -46.5t-25 -53l-58 -222h583l-39 -145h-584l-59 -219
q-15 -56 17 -103q31 -45 90 -45h585l-39 -145h-1172z" />
    <glyph glyph-name="Oslash" unicode="&#xd8;" horiz-adv-x="1579" 
d="M1167 598l-506 -401q31 -52 93 -52h147q57 0 113 45q57 46 72 103zM1231 972q-31 52 -95 52h-147q-27 0 -57 -12.5t-56 -33t-45.5 -46.5t-25.5 -53l-82 -307zM1685 1005q17 -63 -2 -126l-157 -586q-32 -117 -144 -205t-227 -88h-745l-176 -136l-150 204l123 98
q-14 66 2 127l158 586q31 114 142 202q112 88 229 88h742l177 139l151 -204z" />
    <glyph glyph-name="plusminus" unicode="&#xb1;" horiz-adv-x="827" 
d="M47 0l39 145h731l-39 -145h-731zM622 512l-77 -293h-145l77 293h-293l40 145h292l78 293h146l-79 -293h293l-38 -145h-294z" />
    <glyph glyph-name="yen" unicode="&#xa5;" horiz-adv-x="1476" 
d="M1612 805q-31 -115 -144 -205q-112 -88 -227 -88h-147l-12 -43h366l-39 -148h-366l-21 -73h367l-39 -146h-367l-27 -102h-438l27 102h-367l39 146h367l20 73h-366l38 148h367l12 43h-145q-117 0 -181 87q-65 91 -34 206l99 364h437l-98 -364q-6 -29 -1 -55.5t19.5 -47
t37 -33t51.5 -12.5h147q58 0 114 45q56 46 70 103l99 364h440z" />
    <glyph glyph-name="ae" unicode="&#xe6;" horiz-adv-x="2517" 
d="M1080 438h-294q-27 0 -56 -12t-54.5 -32t-45.5 -46.5t-28 -54.5q-6 -29 -1 -55.5t19 -47t37 -33t52 -12.5h147q57 0 113 45q57 45 71 103zM2144 586q13 57 -17 101q-32 44 -89 44h-148q-28 0 -58 -11.5t-56 -31.5t-45 -46.5t-25 -55.5l-41 -148h439zM1626 293
q-8 -59 21 -104q30 -44 86 -44h585l-38 -145h-877q-79 0 -135 43q-79 -43 -158 -43h-731q-118 0 -181 87q-65 91 -34 206t143 203q115 90 230 90h583q7 57 -20 101q-29 44 -86 44h-586l39 148h878q77 0 133 -44q83 44 160 44h731q113 0 179 -91q66 -89 37 -202l-81 -293
h-878z" />
    <glyph glyph-name="oslash" unicode="&#xf8;" horiz-adv-x="1583" 
d="M1114 389l-442 -207q33 -37 84 -37h147q57 0 113 45q57 46 72 103zM1145 694q-31 37 -84 37h-147q-29 0 -59 -11.5t-55.5 -31.5t-44.5 -46.5t-26 -55.5l-26 -99zM1612 620q0 -22 -4 -34l-80 -293q-31 -114 -143 -205q-113 -88 -228 -88h-731q-48 0 -100 23l-119 -53
l-70 254l66 30q1 4 2 9t2 9q1 5 2 10.5t2 10.5l80 293q30 115 141 202q115 91 229 91h732q49 0 100 -23l119 56l67 -259z" />
    <glyph glyph-name="questiondown" unicode="&#xbf;" horiz-adv-x="1057" 
d="M238 -290q-116 0 -180 90q-66 89 -35 200l20 74q31 115 141 202q113 91 230 91h219q58 0 110 43q53 44 74 102h293q-38 -119 -146 -205q-109 -88 -224 -88h-220q-55 0 -114 -44q-56 -43 -70 -101l-21 -74q-8 -27 -3 -53t20 -45.5t38.5 -31.5t51.5 -12h512l-39 -148h-657z
M1169 731q-16 -60 -70 -103q-53 -42 -114 -42q-62 0 -93 42q-32 44 -15 103q13 59 68 103q55 45 118 45q58 0 90 -45q31 -43 16 -103z" />
    <glyph glyph-name="exclamdown" unicode="&#xa1;" horiz-adv-x="469" 
d="M8 -290l272 802h176l-155 -802h-293zM576 731q-17 -59 -73 -103q-56 -42 -114 -42q-60 0 -91 42q-32 46 -16 103q15 60 70 103q55 45 115 45q59 0 91 -45q32 -44 18 -103z" />
    <glyph glyph-name="guillemotleft" unicode="&#xab;" horiz-adv-x="958" 
d="M266 145l-40 441l276 438h246l-277 -438l41 -441h-246zM659 145l-39 441l275 438h247l-276 -438l42 -441h-249z" />
    <glyph glyph-name="guillemotright" unicode="&#xbb;" horiz-adv-x="956" 
d="M373 145h-246l279 441l-43 438h245l43 -438zM768 145h-246l276 441l-40 438h245l44 -438z" />
    <glyph glyph-name="ellipsis" unicode="&#x85;" horiz-adv-x="1204" 
d="M422 145q-16 -59 -72 -103q-56 -42 -114 -42q-61 0 -92 43q-32 43 -15 102q16 60 70 105q55 43 114 43q60 0 93 -43q32 -45 16 -105zM786 145q-16 -59 -70 -102q-55 -43 -114 -43q-62 0 -93 43q-32 44 -16 102q17 62 71 105q55 43 116 43q60 0 91 -43q31 -44 15 -105z
M1153 145q-16 -60 -71 -102q-52 -43 -116 -43q-59 0 -90 43q-32 44 -16 102q17 62 71 105q55 43 114 43q61 0 92 -43q32 -46 16 -105z" />
    <glyph glyph-name="ellipsis" unicode="&#x2026;" horiz-adv-x="1204" 
d="M422 145q-16 -59 -72 -103q-56 -42 -114 -42q-61 0 -92 43q-32 43 -15 102q16 60 70 105q55 43 114 43q60 0 93 -43q32 -45 16 -105zM786 145q-16 -59 -70 -102q-55 -43 -114 -43q-62 0 -93 43q-32 44 -16 102q17 62 71 105q55 43 116 43q60 0 91 -43q31 -44 15 -105z
M1153 145q-16 -60 -71 -102q-52 -43 -116 -43q-59 0 -90 43q-32 44 -16 102q17 62 71 105q55 43 114 43q61 0 92 -43q32 -46 16 -105z" />
    <glyph glyph-name="nonbreakingspace" unicode="&#xa0;" horiz-adv-x="731" 
 />
    <glyph glyph-name="Agrave" unicode="&#xc0;" 
d="M1231 1024h-293q-27 0 -57 -12.5t-56.5 -33t-45.5 -46.5t-25 -53l-60 -222h438zM956 0l138 512h-439l-137 -512h-438l235 879q31 114 142 202q112 88 229 88h1024l-313 -1169h-441zM614 1317l184 145l462 -190l-6 -29z" />
    <glyph glyph-name="Atilde" unicode="&#xc3;" horiz-adv-x="1472" 
d="M1227 1024h-293q-27 0 -57 -12.5t-56.5 -33t-45.5 -46.5t-25 -53l-60 -222h438zM952 0l138 512h-439l-137 -512h-438l235 879q31 114 142 202q112 88 229 88h1024l-313 -1169h-441zM1374 1302q-98 -59 -166 -59q-42 0 -135 35q-84 34 -133 34q-72 0 -166 -69l39 150
q79 57 164 57q45 0 135 -35q93 -35 140 -35q75 0 163 70z" />
    <glyph glyph-name="Otilde" unicode="&#xd5;" 
d="M1186 879q6 27 1 53t-19 46.5t-36.5 33t-51.5 12.5h-148q-27 0 -57 -12.5t-56.5 -33t-45.5 -46.5t-25 -53l-158 -586q-6 -29 -1 -55.5t19 -47t36.5 -33t51.5 -12.5h148q57 0 113 45q57 45 71 103zM1468 293q-32 -116 -143 -205q-112 -88 -227 -88h-731q-118 0 -182 87
q-64 88 -34 206l158 586q31 114 142 202q112 88 229 88h731q114 0 179 -87q68 -92 36 -203zM1372 1302q-98 -59 -166 -59q-42 0 -135 35q-84 34 -133 34q-72 0 -166 -69l39 150q79 57 164 57q45 0 135 -35q93 -35 140 -35q75 0 163 70z" />
    <glyph glyph-name="OE" horiz-adv-x="2369" 
d="M1206 879q7 27 2 53t-19.5 46.5t-37.5 33t-51 12.5h-148q-27 0 -56.5 -12.5t-56 -33t-46 -46.5t-25.5 -53l-158 -586q-6 -29 -1 -55.5t19.5 -47t37 -33t51.5 -12.5h147q57 0 113 45q57 46 72 103zM1411 0q-79 0 -135 43q-79 -43 -158 -43h-731q-118 0 -181 87
q-65 91 -34 206l158 586q31 114 142 202q112 88 229 88h731q73 0 135 -41q84 41 158 41h876l-39 -145h-586q-27 0 -56.5 -12.5t-56 -33t-46 -46.5t-25.5 -53l-59 -222h585l-38 -145h-586l-60 -219q-6 -29 -1 -55.5t19.5 -47t37 -33t51.5 -12.5h585l-38 -145h-877z" />
    <glyph glyph-name="OE" unicode="&#x152;" horiz-adv-x="2369" 
d="M1206 879q7 27 2 53t-19.5 46.5t-37.5 33t-51 12.5h-148q-27 0 -56.5 -12.5t-56 -33t-46 -46.5t-25.5 -53l-158 -586q-6 -29 -1 -55.5t19.5 -47t37 -33t51.5 -12.5h147q57 0 113 45q57 46 72 103zM1411 0q-79 0 -135 43q-79 -43 -158 -43h-731q-118 0 -181 87
q-65 91 -34 206l158 586q31 114 142 202q112 88 229 88h731q73 0 135 -41q84 41 158 41h876l-39 -145h-586q-27 0 -56.5 -12.5t-56 -33t-46 -46.5t-25.5 -53l-59 -222h585l-38 -145h-586l-60 -219q-6 -29 -1 -55.5t19.5 -47t37 -33t51.5 -12.5h585l-38 -145h-877z" />
    <glyph glyph-name="oe" horiz-adv-x="2523" 
d="M1126 586q13 57 -17 101q-32 44 -89 44h-147q-29 0 -59 -11.5t-56 -31.5t-45 -46.5t-25 -55.5l-80 -293q-6 -29 -1 -55.5t19.5 -47t37 -33t51.5 -12.5h147q57 0 113 45q57 46 72 103zM2150 586q13 57 -17 101q-32 44 -89 44h-147q-29 0 -59 -11.5t-56 -31.5t-45 -46.5
t-25 -55.5l-41 -148h439zM1632 293q-8 -59 21 -104q30 -44 86 -44h585l-38 -145h-877q-79 0 -135 43q-79 -43 -158 -43h-731q-118 0 -181 87q-65 91 -34 206l80 293q31 115 141 202q113 91 229 91h732q76 0 132 -44q83 44 160 44h732q112 0 178 -91q66 -89 37 -202l-80 -293
h-879z" />
    <glyph glyph-name="oe" unicode="&#x153;" horiz-adv-x="2523" 
d="M1126 586q13 57 -17 101q-32 44 -89 44h-147q-29 0 -59 -11.5t-56 -31.5t-45 -46.5t-25 -55.5l-80 -293q-6 -29 -1 -55.5t19.5 -47t37 -33t51.5 -12.5h147q57 0 113 45q57 46 72 103zM2150 586q13 57 -17 101q-32 44 -89 44h-147q-29 0 -59 -11.5t-56 -31.5t-45 -46.5
t-25 -55.5l-41 -148h439zM1632 293q-8 -59 21 -104q30 -44 86 -44h585l-38 -145h-877q-79 0 -135 43q-79 -43 -158 -43h-731q-118 0 -181 87q-65 91 -34 206l80 293q31 115 141 202q113 91 229 91h732q76 0 132 -44q83 44 160 44h732q112 0 178 -91q66 -89 37 -202l-80 -293
h-879z" />
    <glyph glyph-name="endash" horiz-adv-x="639" 
d="M236 512l38 145h439l-39 -145h-438z" />
    <glyph glyph-name="endash" unicode="&#x2013;" horiz-adv-x="639" 
d="M236 512l38 145h439l-39 -145h-438z" />
    <glyph glyph-name="emdash" horiz-adv-x="1075" 
d="M236 512l38 145h877l-39 -145h-876z" />
    <glyph glyph-name="emdash" unicode="&#x2014;" horiz-adv-x="1075" 
d="M236 512l38 145h877l-39 -145h-876z" />
    <glyph glyph-name="quotedblleft" horiz-adv-x="868" 
d="M713 1088q-15 -53 -72 -162q-58 -105 -94 -150q-67 -73 -147 -73q-62 0 -93 43q-31 40 -14 102q10 39 39 74q47 60 168 149q133 98 186 98q49 0 27 -81zM1078 1088q-8 -31 -26 -71t-44 -91q-59 -108 -96 -150q-64 -73 -148 -73q-59 0 -90 42q-31 43 -15 103q10 39 39 74
q51 61 168 149q133 98 187 98q47 0 25 -81z" />
    <glyph glyph-name="quotedblleft" unicode="&#x201c;" horiz-adv-x="868" 
d="M713 1088q-15 -53 -72 -162q-58 -105 -94 -150q-67 -73 -147 -73q-62 0 -93 43q-31 40 -14 102q10 39 39 74q47 60 168 149q133 98 186 98q49 0 27 -81zM1078 1088q-8 -31 -26 -71t-44 -91q-59 -108 -96 -150q-64 -73 -148 -73q-59 0 -90 42q-31 43 -15 103q10 39 39 74
q51 61 168 149q133 98 187 98q47 0 25 -81z" />
    <glyph glyph-name="quotedblright" horiz-adv-x="868" 
d="M713 1024q-10 -41 -41 -74q-48 -59 -168 -150q-136 -97 -185 -97t-26 81q8 32 26 72t44 88q28 54 51.5 92.5t45.5 61.5q62 71 146 71q60 0 91 -43q32 -44 16 -102zM1078 1024q-10 -40 -40 -74q-47 -59 -168 -150q-134 -97 -186 -97q-48 0 -25 81q8 31 26 71t44 89
q52 104 96 154q66 71 145 71q62 0 93 -43q31 -42 15 -102z" />
    <glyph glyph-name="quotedblright" unicode="&#x201d;" horiz-adv-x="868" 
d="M713 1024q-10 -41 -41 -74q-48 -59 -168 -150q-136 -97 -185 -97t-26 81q8 32 26 72t44 88q28 54 51.5 92.5t45.5 61.5q62 71 146 71q60 0 91 -43q32 -44 16 -102zM1078 1024q-10 -40 -40 -74q-47 -59 -168 -150q-134 -97 -186 -97q-48 0 -25 81q8 31 26 71t44 89
q52 104 96 154q66 71 145 71q62 0 93 -43q31 -42 15 -102z" />
    <glyph glyph-name="quoteleft" horiz-adv-x="460" 
d="M686 1088q-14 -53 -72 -162q-28 -54 -51.5 -90.5t-42.5 -59.5q-67 -73 -147 -73q-62 0 -93 43q-30 41 -14 102q10 39 39 74q23 29 65.5 66.5t102.5 82.5q133 98 186 98q49 0 27 -81z" />
    <glyph glyph-name="quoteleft" unicode="&#x2018;" horiz-adv-x="460" 
d="M686 1088q-14 -53 -72 -162q-28 -54 -51.5 -90.5t-42.5 -59.5q-67 -73 -147 -73q-62 0 -93 43q-30 41 -14 102q10 39 39 74q23 29 65.5 66.5t102.5 82.5q133 98 186 98q49 0 27 -81z" />
    <glyph glyph-name="quoteright" horiz-adv-x="460" 
d="M696 1024q-10 -41 -41 -74q-47 -59 -168 -150q-136 -97 -184 -97t-27 81q8 31 26 71t44 89q54 106 98 154q62 71 146 71q60 0 91 -43q31 -42 15 -102z" />
    <glyph glyph-name="quoteright" unicode="&#x2019;" horiz-adv-x="460" 
d="M696 1024q-10 -41 -41 -74q-47 -59 -168 -150q-136 -97 -184 -97t-27 81q8 31 26 71t44 89q54 106 98 154q62 71 146 71q60 0 91 -43q31 -42 15 -102z" />
    <glyph glyph-name="divide" unicode="&#xf7;" horiz-adv-x="776" 
d="M586 330q-12 -47 -54 -78q-41 -33 -86 -33t-68 32t-11 79q12 46 52 77t85 31q22 0 40 -8.5t29.5 -23t15 -34.5t-2.5 -42zM160 512l39 145h731l-39 -145h-731zM723 842q-12 -47 -54 -78q-41 -33 -85 -33q-46 0 -69 32t-11 79q12 46 52 77t85 31q44 0 70 -32q25 -31 12 -76
z" />
    <glyph glyph-name="ydieresis" unicode="&#xff;" horiz-adv-x="1458" 
d="M1380 0q-29 -110 -143 -200q-116 -90 -227 -90h-879l39 148h586q57 0 109 43q26 21 45.5 46t29.5 53h-584q-117 0 -181 87q-65 91 -34 206l158 586h439l-158 -586q-6 -29 -1 -55.5t19 -47t36.5 -33t51.5 -12.5h293l196 734h441zM932 1061q-12 -45 -55 -78
q-42 -33 -85 -33q-23 0 -40 9t-28 24t-14 35t3 43q11 44 52 75q42 33 87 33q43 0 67 -33q23 -33 13 -75zM1298 1061q-12 -45 -54 -78t-87 -33q-43 0 -67 33q-23 34 -10 78q10 43 51 75q42 33 86 33q22 0 39.5 -9t28 -24t14.5 -34.5t-1 -40.5z" />
    <glyph glyph-name="Ydieresis" horiz-adv-x="1420" 
d="M1544 657q-31 -112 -145 -203q-110 -87 -226 -87h-147l-98 -367h-439l99 367h-146q-117 0 -181 87q-65 89 -33 203l137 512h438l-138 -512q-8 -27 -2.5 -53.5t20.5 -46.5t38 -32.5t51 -12.5h148q29 0 58.5 12.5t55 32.5t44 46.5t26.5 53.5l137 512h440zM997 1354
q-12 -47 -54 -78q-41 -33 -83 -33q-23 0 -41 8.5t-29 23.5t-14.5 35.5t2.5 43.5q12 41 53 76q43 32 87 32q41 0 67 -32q25 -33 12 -76zM1364 1354q-12 -47 -54 -78q-41 -33 -85 -33q-42 0 -68 32q-25 33 -12 79q12 41 53 76q41 32 84 32q45 0 69 -32q25 -31 13 -76z" />
    <glyph glyph-name="Ydieresis" unicode="&#x178;" horiz-adv-x="1420" 
d="M1544 657q-31 -112 -145 -203q-110 -87 -226 -87h-147l-98 -367h-439l99 367h-146q-117 0 -181 87q-65 89 -33 203l137 512h438l-138 -512q-8 -27 -2.5 -53.5t20.5 -46.5t38 -32.5t51 -12.5h148q29 0 58.5 12.5t55 32.5t44 46.5t26.5 53.5l137 512h440zM997 1354
q-12 -47 -54 -78q-41 -33 -83 -33q-23 0 -41 8.5t-29 23.5t-14.5 35.5t2.5 43.5q12 41 53 76q43 32 87 32q41 0 67 -32q25 -33 12 -76zM1364 1354q-12 -47 -54 -78q-41 -33 -85 -33q-42 0 -68 32q-25 33 -12 79q12 41 53 76q41 32 84 32q45 0 69 -32q25 -31 13 -76z" />
    <glyph glyph-name="guilsinglleft" horiz-adv-x="528" 
d="M240 145l-41 441l276 438h246l-277 -438l41 -441h-245z" />
    <glyph glyph-name="guilsinglleft" unicode="&#x2039;" horiz-adv-x="528" 
d="M240 145l-41 441l276 438h246l-277 -438l41 -441h-245z" />
    <glyph glyph-name="guilsinglright" horiz-adv-x="531" 
d="M365 145h-247l280 441l-44 438h246l43 -438z" />
    <glyph glyph-name="guilsinglright" unicode="&#x203a;" horiz-adv-x="531" 
d="M365 145h-247l280 441l-44 438h246l43 -438z" />
    <glyph glyph-name="quotesinglbase" horiz-adv-x="458" 
d="M460 145q-10 -39 -38 -71q-26 -31 -68 -67.5t-102 -79.5q-133 -100 -184 -100q-49 0 -27 82q8 31 26 70.5t43 90.5q59 106 99 149q60 74 145 74q60 0 91 -43q31 -44 15 -105z" />
    <glyph glyph-name="quotesinglbase" unicode="&#x201a;" horiz-adv-x="458" 
d="M460 145q-10 -39 -38 -71q-26 -31 -68 -67.5t-102 -79.5q-133 -100 -184 -100q-49 0 -27 82q8 31 26 70.5t43 90.5q59 106 99 149q60 74 145 74q60 0 91 -43q31 -44 15 -105z" />
    <glyph glyph-name="quotedblbase" horiz-adv-x="866" 
d="M475 145q-11 -40 -39 -71q-49 -61 -170 -147q-133 -100 -184 -100q-48 0 -26 82q16 63 69 161q58 106 99 149q60 74 145 74q59 0 90 -43q32 -46 16 -105zM840 145q-10 -37 -37 -71q-26 -31 -68 -67.5t-102 -79.5q-133 -100 -187 -100q-46 0 -24 82q7 31 25 70.5t44 90.5
q29 54 53.5 90.5t43.5 58.5q63 74 145 74q61 0 92 -43q31 -44 15 -105z" />
    <glyph glyph-name="quotedblbase" unicode="&#x201e;" horiz-adv-x="866" 
d="M475 145q-11 -40 -39 -71q-49 -61 -170 -147q-133 -100 -184 -100q-48 0 -26 82q16 63 69 161q58 106 99 149q60 74 145 74q59 0 90 -43q32 -46 16 -105zM840 145q-10 -37 -37 -71q-26 -31 -68 -67.5t-102 -79.5q-133 -100 -187 -100q-46 0 -24 82q7 31 25 70.5t44 90.5
q29 54 53.5 90.5t43.5 58.5q63 74 145 74q61 0 92 -43q31 -44 15 -105z" />
    <glyph glyph-name="perthousand" horiz-adv-x="3640" 
d="M1034 879q6 27 1 53t-19.5 46.5t-37.5 33t-52 12.5h-146q-28 0 -58 -12.5t-56 -33t-45 -46.5t-25 -53l-39 -148q-16 -57 17 -102q31 -43 89 -43h146q56 0 114 43q55 43 72 102zM2322 438q8 28 2.5 55t-20 47.5t-37 33t-49.5 12.5h-147q-59 0 -114 -45q-57 -46 -73 -103
l-39 -145q-14 -59 17 -103q31 -45 90 -45h147q27 0 57 12.5t56.5 33t46 47t25.5 55.5zM3420 438q17 60 -16 103q-33 45 -90 45h-146q-57 0 -115 -45q-58 -46 -73 -103l-39 -145q-13 -56 19 -103q31 -45 89 -45h146q56 0 115 45q57 45 71 103zM1288 731q-30 -113 -146 -205
q-110 -88 -226 -88h-439q-117 0 -181 88q-64 87 -32 205l39 148q31 114 142 202q112 88 229 88h438q115 0 178 -87q68 -93 37 -203zM1217 -11l-251 95l697 1102l248 -100zM2576 293q-30 -114 -143 -205q-112 -88 -227 -88h-438q-119 0 -183 87q-63 88 -33 206l40 145
q31 117 144 204q113 89 228 89h438q115 0 179 -88q65 -92 35 -205zM3674 293q-32 -117 -144 -205t-226 -88h-441q-115 0 -179 87q-64 90 -34 206l39 145q33 117 144 204q113 89 227 89h440q115 0 178 -88q66 -92 35 -205z" />
    <glyph glyph-name="perthousand" unicode="&#x2030;" horiz-adv-x="3640" 
d="M1034 879q6 27 1 53t-19.5 46.5t-37.5 33t-52 12.5h-146q-28 0 -58 -12.5t-56 -33t-45 -46.5t-25 -53l-39 -148q-16 -57 17 -102q31 -43 89 -43h146q56 0 114 43q55 43 72 102zM2322 438q8 28 2.5 55t-20 47.5t-37 33t-49.5 12.5h-147q-59 0 -114 -45q-57 -46 -73 -103
l-39 -145q-14 -59 17 -103q31 -45 90 -45h147q27 0 57 12.5t56.5 33t46 47t25.5 55.5zM3420 438q17 60 -16 103q-33 45 -90 45h-146q-57 0 -115 -45q-58 -46 -73 -103l-39 -145q-13 -56 19 -103q31 -45 89 -45h146q56 0 115 45q57 45 71 103zM1288 731q-30 -113 -146 -205
q-110 -88 -226 -88h-439q-117 0 -181 88q-64 87 -32 205l39 148q31 114 142 202q112 88 229 88h438q115 0 178 -87q68 -93 37 -203zM1217 -11l-251 95l697 1102l248 -100zM2576 293q-30 -114 -143 -205q-112 -88 -227 -88h-438q-119 0 -183 87q-63 88 -33 206l40 145
q31 117 144 204q113 89 228 89h438q115 0 179 -88q65 -92 35 -205zM3674 293q-32 -117 -144 -205t-226 -88h-441q-115 0 -179 87q-64 90 -34 206l39 145q33 117 144 204q113 89 227 89h440q115 0 178 -88q66 -92 35 -205z" />
    <glyph glyph-name="Acircumflex" unicode="&#xc2;" horiz-adv-x="1472" 
d="M1227 1024h-293q-27 0 -57 -12.5t-56.5 -33t-45.5 -46.5t-25 -53l-60 -222h438zM952 0l138 512h-439l-137 -512h-438l235 879q31 114 142 202q112 88 229 88h1024l-313 -1169h-441zM1256 1243l-152 142l-225 -142h-238l350 219h267l235 -219h-237z" />
    <glyph glyph-name="Ecircumflex" unicode="&#xca;" horiz-adv-x="1288" 
d="M369 0q-118 0 -182 87q-64 88 -34 206l158 586q31 114 142 202q112 88 229 88h877l-39 -145h-586q-27 0 -57 -12.5t-56.5 -33t-45.5 -46.5t-25 -53l-60 -222h586l-39 -145h-586l-59 -219q-6 -29 -1 -55.5t19 -47t36.5 -33t51.5 -12.5h586l-39 -145h-876zM1184 1243
l-154 142l-225 -142h-235l348 219h266l236 -219h-236z" />
    <glyph glyph-name="Aacute" unicode="&#xc1;" horiz-adv-x="1466" 
d="M1217 1024h-293q-27 0 -57 -12.5t-56.5 -33t-45.5 -46.5t-25 -53l-60 -222h438zM942 0l138 512h-439l-137 -512h-438l235 879q31 114 142 202q112 88 229 88h1024l-314 -1169h-440zM875 1243l6 29l563 190l106 -145z" />
    <glyph glyph-name="Edieresis" unicode="&#xcb;" horiz-adv-x="1284" 
d="M367 0q-118 0 -182 87q-64 88 -34 206l158 586q31 114 142 202q112 88 229 88h877l-40 -145h-585q-27 0 -57 -12.5t-56.5 -33t-45.5 -46.5t-25 -53l-60 -222h586l-39 -145h-586l-59 -219q-6 -29 -1 -55.5t19 -47t36.5 -33t51.5 -12.5h586l-39 -145h-876zM948 1354
q-12 -45 -53 -79q-41 -32 -86 -32q-43 0 -68 33q-24 31 -12 78q14 44 53 76q41 32 84 32q23 0 41 -8.5t29 -23.5t14.5 -34.5t-2.5 -41.5zM1312 1354q-12 -46 -52 -78q-41 -33 -85 -33q-23 0 -40.5 8.5t-28.5 23.5t-14.5 35.5t2.5 43.5q12 42 52 76q43 32 87 32q41 0 67 -32
q25 -33 12 -76z" />
    <glyph glyph-name="Egrave" unicode="&#xc8;" horiz-adv-x="1272" 
d="M373 0q-118 0 -182 87q-64 88 -33 206l157 586q31 114 142 202q112 88 229 88h877l-39 -145h-586q-27 0 -57 -12.5t-56.5 -33t-45.5 -46.5t-25 -53l-60 -222h586l-39 -145h-586l-59 -219q-6 -29 -1 -55.5t19 -47t36.5 -33t52.5 -12.5h585l-38 -145h-877zM541 1317
l186 145l461 -190l-6 -29z" />
    <glyph glyph-name="Iacute" unicode="&#xcd;" horiz-adv-x="794" 
d="M80 0l314 1169h437l-313 -1169h-438zM450 1243l6 29l564 190l106 -145z" />
    <glyph glyph-name="Icircumflex" unicode="&#xce;" horiz-adv-x="922" 
d="M242 0l313 1169h438l-313 -1169h-438zM983 1243l-152 142l-225 -142h-237l350 219h266l236 -219h-238z" />
    <glyph glyph-name="Idieresis" unicode="&#xcf;" horiz-adv-x="719" 
d="M139 0l313 1169h439l-313 -1169h-439zM647 1354q-12 -46 -53 -78q-41 -33 -84 -33q-48 0 -70 32t-12 79q12 41 53 76q41 32 87 32q42 0 66 -32q25 -31 13 -76zM1014 1354q-13 -46 -54 -79q-41 -32 -85 -32t-69 33q-24 31 -12 78q13 43 54 76q41 32 84 32q22 0 40 -8.5
t29.5 -23.5t15 -34.5t-2.5 -41.5z" />
    <glyph glyph-name="Igrave" unicode="&#xcc;" horiz-adv-x="796" 
d="M276 0l314 1169h438l-313 -1169h-439zM373 1317l184 145l461 -190l-6 -29z" />
    <glyph glyph-name="Oacute" unicode="&#xd3;" horiz-adv-x="1458" 
d="M1175 879q7 27 2.5 53t-19 46.5t-37 33t-52.5 12.5h-147q-28 0 -58 -12.5t-56 -33t-45 -46.5t-25 -53l-158 -586q-6 -29 -1 -55.5t19 -47t36.5 -33t51.5 -12.5h147q57 0 113 45q57 46 72 103zM1458 293q-32 -116 -143 -205q-113 -88 -227 -88h-732q-117 0 -181 87
q-65 91 -34 206l158 586q31 114 142 202q112 88 229 88h731q113 0 178 -87q67 -91 37 -203zM873 1243l6 29l563 190l106 -145z" />
    <glyph glyph-name="Ocircumflex" unicode="&#xd4;" horiz-adv-x="1466" 
d="M1186 879q6 27 1 53t-19 46.5t-36.5 33t-51.5 12.5h-148q-27 0 -57 -12.5t-56.5 -33t-45.5 -46.5t-25 -53l-158 -586q-6 -29 -1 -55.5t19 -47t36.5 -33t51.5 -12.5h148q57 0 113 45q57 45 71 103zM1468 293q-32 -116 -143 -205q-112 -88 -227 -88h-731q-118 0 -182 87
q-64 88 -34 206l158 586q31 114 142 202q112 88 229 88h731q114 0 179 -87q68 -92 36 -203zM1254 1243l-152 142l-225 -142h-238l350 219h267l235 -219h-237z" />
    <glyph glyph-name="Ograve" unicode="&#xd2;" horiz-adv-x="1458" 
d="M1190 879q6 27 1 53t-19 46.5t-36.5 33t-51.5 12.5h-148q-27 0 -57 -12.5t-56.5 -33t-45.5 -46.5t-25 -53l-158 -586q-6 -29 -1 -55.5t19 -47t36.5 -33t52.5 -12.5h147q57 0 113 45q57 45 71 103zM1472 293q-32 -116 -143 -205q-112 -88 -227 -88h-731q-118 0 -182 87
q-64 88 -33 206l157 586q31 114 142 202q112 88 229 88h731q114 0 179 -87q68 -92 36 -203zM612 1317l184 145l462 -190l-6 -29z" />
    <glyph glyph-name="Uacute" unicode="&#xda;" 
d="M1460 293q-32 -116 -143 -205q-113 -88 -227 -88h-732q-117 0 -181 87q-65 91 -34 206l236 876h438l-235 -876q-6 -29 -1 -55.5t19 -47t36.5 -33t51.5 -12.5h147q57 0 113 45q57 46 72 103l236 876h440zM875 1243l6 29l563 190l106 -145z" />
    <glyph glyph-name="Ucircumflex" unicode="&#xdb;" horiz-adv-x="1472" 
d="M1472 293q-32 -116 -143 -205q-112 -88 -227 -88h-731q-118 0 -182 87q-64 88 -33 206l235 876h438l-235 -876q-6 -29 -1 -55.5t19 -47t36.5 -33t52.5 -12.5h147q57 0 113 45q57 45 71 103l236 876h440zM1258 1243l-152 142l-225 -142h-238l350 219h267l235 -219h-237z
" />
    <glyph glyph-name="Ugrave" unicode="&#xd9;" horiz-adv-x="1462" 
d="M1474 293q-32 -116 -143 -205q-112 -88 -227 -88h-731q-118 0 -182 87q-64 88 -33 206l236 876h437l-235 -876q-6 -29 -1 -55.5t19 -47t36.5 -33t52.5 -12.5h147q57 0 113 45q57 45 71 103l236 876h440zM614 1317l184 145l462 -190l-6 -29z" />
    <glyph glyph-name="circumflex" horiz-adv-x="958" 
d="M1001 1243l-151 142l-228 -142h-235l351 219h265l234 -219h-236z" />
    <glyph glyph-name="circumflex" unicode="&#x2c6;" horiz-adv-x="958" 
d="M1001 1243l-151 142l-228 -142h-235l351 219h265l234 -219h-236z" />
    <glyph glyph-name="tilde" horiz-adv-x="768" 
d="M1024 1302q-92 -59 -164 -59q-43 0 -134 35q-89 34 -134 34q-76 0 -166 -69l39 150q79 57 163 57q46 0 137 -35t136 -35q76 0 164 70z" />
    <glyph glyph-name="tilde" unicode="&#x2dc;" horiz-adv-x="768" 
d="M1024 1302q-92 -59 -164 -59q-43 0 -134 35q-89 34 -134 34q-76 0 -166 -69l39 150q79 57 163 57q46 0 137 -35t136 -35q76 0 164 70z" />
    <glyph glyph-name="macron" unicode="&#xaf;" horiz-adv-x="930" 
d="M373 1024l39 145h730l-38 -145h-731z" />
    <glyph glyph-name="space" unicode=" " horiz-adv-x="731" 
 />
    <glyph glyph-name="Scaron" horiz-adv-x="1282" 
d="M1300 293q-31 -118 -142 -206q-111 -87 -228 -87h-876l38 145h584q28 0 58 12t55.5 32t45 47t27.5 57q21 78 -149 149q-266 112 -311 144q-162 110 -114 293q31 114 142 202q112 88 229 88h877l-39 -145h-585q-29 0 -59 -12.5t-56 -33t-45 -46.5t-25 -53
q-22 -82 150 -152q265 -112 313 -141q160 -116 110 -293zM1104 1243h-266l-234 219h236l151 -141l228 141h235z" />
    <glyph glyph-name="Scaron" unicode="&#x160;" horiz-adv-x="1282" 
d="M1300 293q-31 -118 -142 -206q-111 -87 -228 -87h-876l38 145h584q28 0 58 12t55.5 32t45 47t27.5 57q21 78 -149 149q-266 112 -311 144q-162 110 -114 293q31 114 142 202q112 88 229 88h877l-39 -145h-585q-29 0 -59 -12.5t-56 -33t-45 -46.5t-25 -53
q-22 -82 150 -152q265 -112 313 -141q160 -116 110 -293zM1104 1243h-266l-234 219h236l151 -141l228 141h235z" />
    <glyph glyph-name="scaron" horiz-adv-x="1296" 
d="M1290 219q-32 -110 -141 -170q-95 -49 -211 -49h-876l38 145h658q28 0 57 23q29 22 37 51q13 60 -160 115q-141 43 -218.5 70.5t-102.5 37.5q-167 85 -133 215q32 115 139 170q91 52 213 52h876l-38 -148h-658q-15 0 -30 -6t-27.5 -16t-22.5 -23.5t-14 -28.5
q-16 -61 159 -112q280 -91 322 -113q167 -84 133 -213zM1032 950h-266l-231 219h235l152 -141l227 141h236z" />
    <glyph glyph-name="scaron" unicode="&#x161;" horiz-adv-x="1296" 
d="M1290 219q-32 -110 -141 -170q-95 -49 -211 -49h-876l38 145h658q28 0 57 23q29 22 37 51q13 60 -160 115q-141 43 -218.5 70.5t-102.5 37.5q-167 85 -133 215q32 115 139 170q91 52 213 52h876l-38 -148h-658q-15 0 -30 -6t-27.5 -16t-22.5 -23.5t-14 -28.5
q-16 -61 159 -112q280 -91 322 -113q167 -84 133 -213zM1032 950h-266l-231 219h235l152 -141l227 141h236z" />
    <glyph glyph-name="brokenbar" unicode="&#xa6;" horiz-adv-x="477" 
d="M60 -142l176 654h292l-176 -654h-292zM274 657l176 660h294l-176 -660h-294z" />
    <glyph glyph-name="Yacute" unicode="&#xdd;" horiz-adv-x="1413" 
d="M1534 657q-31 -112 -145 -203q-111 -87 -226 -87h-147l-98 -367h-439l99 367h-146q-118 0 -181 87q-65 90 -34 203l137 512h438l-137 -512q-8 -27 -2.5 -53.5t20.5 -46.5t38 -32.5t51 -12.5h148q28 0 57.5 12.5t55 32.5t44.5 46.5t27 53.5l137 512h440zM850 1243l6 29
l564 190l106 -145z" />
    <glyph glyph-name="yacute" unicode="&#xfd;" horiz-adv-x="1450" 
d="M1368 0q-29 -110 -143 -200q-116 -90 -228 -90h-879l40 148h586q57 0 109 43t75 99h-584q-117 0 -181 87q-65 91 -34 206l157 586h439l-157 -586q-7 -29 -2 -55.5t19.5 -47t37 -33t51.5 -12.5h292l197 734h441zM780 950l8 31l564 188l106 -145z" />
    <glyph glyph-name="minus" unicode="&#xad;" horiz-adv-x="930" 
d="M236 512l38 145h731l-39 -145h-730z" />
    <glyph glyph-name="multiply" unicode="&#xd7;" horiz-adv-x="774" 
d="M665 274l-151 207l-262 -207l-74 105l260 207l-152 204l132 105l152 -207l261 207l77 -105l-261 -204l151 -207z" />
    </font>
</defs>
</svg>
